<?xml version="1.0" encoding="UTF-8"?>
<svg xmlns="http://www.w3.org/2000/svg" viewBox="200 200 600 600">
<path d="M0 0 C1.25964569 0.00090637 1.25964569 0.00090637 2.54473877 0.00183105 C15.6444224 0.02737075 28.56892377 0.38922665 41.5625 2.1875 C42.48498535 2.31108887 43.4074707 2.43467773 44.35791016 2.56201172 C104.2956262 10.85458521 161.30051502 36.62236864 206.6796875 76.6640625 C208.55086711 78.30197853 210.47204515 79.88506444 212.4453125 81.3984375 C213.14398437 81.98882812 213.84265625 82.57921875 214.5625 83.1875 C214.5625 83.8475 214.5625 84.5075 214.5625 85.1875 C215.10261719 85.40148437 215.64273438 85.61546875 216.19921875 85.8359375 C219.41286901 87.67382674 221.81190255 90.18402359 224.375 92.8125 C224.9105249 93.35592041 225.4460498 93.89934082 225.99780273 94.45922852 C230.02021863 98.56817418 233.85464255 102.79241035 237.5625 107.1875 C238.34625 108.08210938 239.13 108.97671875 239.9375 109.8984375 C253.22881022 125.15553793 264.6778659 141.5396364 274.5625 159.1875 C275.06523438 160.08452637 275.56796875 160.98155273 276.0859375 161.90576172 C295.60585185 197.13697768 308.86851413 236.95420808 312.5625 277.1875 C312.64717529 278.08275391 312.73185059 278.97800781 312.8190918 279.90039062 C313.59501918 288.83355633 313.76236478 297.7285323 313.75 306.6875 C313.74959213 307.80600845 313.74959213 307.80600845 313.74917603 308.94711304 C313.72882074 321.13504134 313.13620331 333.09288819 311.5625 345.1875 C311.36550258 346.87365323 311.16889572 348.55985214 310.97265625 350.24609375 C305.46780396 395.03865335 288.72179579 440.3129542 262.5625 477.1875 C261.7395275 478.36063792 260.91661393 479.53381718 260.09375 480.70703125 C245.20601289 501.82756484 228.41240656 522.51759534 208.5625 539.1875 C207.78777344 539.85007812 207.01304687 540.51265625 206.21484375 541.1953125 C203.37050506 543.57805063 200.47719309 545.89205761 197.5625 548.1875 C196.55413086 548.98800781 196.55413086 548.98800781 195.52539062 549.8046875 C177.92329854 563.68889686 158.90887143 575.8159855 138.54541016 585.26171875 C136.41800885 586.25496004 134.30967059 587.28377571 132.19921875 588.3125 C91.24280695 607.89364701 45.74988461 616.43782246 0.5625 616.375 C-0.65172134 616.37409363 -0.65172134 616.37409363 -1.89047241 616.37316895 C-15.15703761 616.34641032 -28.26980022 615.93215423 -41.4375 614.1875 C-42.37706543 614.06391113 -43.31663086 613.94032227 -44.28466797 613.81298828 C-107.72220727 605.09178016 -171.82078873 576.30785642 -216.7421875 529.8828125 C-218.59385964 527.97428496 -218.59385964 527.97428496 -221.5 525.6875 C-224.45508973 523.17253002 -226.83639277 520.54287028 -229.33984375 517.59375 C-231.36707427 515.26828631 -233.47245948 513.03310629 -235.59960938 510.79931641 C-247.03084496 498.72040838 -256.45862232 485.14775676 -265.4375 471.1875 C-266.13617188 470.10984375 -266.83484375 469.0321875 -267.5546875 467.921875 C-272.395313 460.27481682 -276.52420135 452.39317765 -280.44189453 444.24804688 C-281.41410085 442.23592786 -282.40654226 440.23490005 -283.40234375 438.234375 C-318.60680844 366.61240135 -320.97896331 282.8262349 -295.64941406 207.77514648 C-278.46307413 157.84006075 -245.98333191 110.2885469 -205.4375 76.1875 C-204.89480469 75.73101074 -204.35210937 75.27452148 -203.79296875 74.80419922 C-158.72174242 37.07996883 -105.44690378 12.18315353 -47.25 3.375 C-46.21027039 3.21701935 -46.21027039 3.21701935 -45.14953613 3.05584717 C-30.065015 0.79267613 -15.22816593 -0.02028369 0 0 Z " fill="#1D3A75" transform="translate(511.4375,194.8125)"/>
<path d="M0 0 C37.29 0 74.58 0 113 0 C113.33 34.32 113.66 68.64 114 104 C114.99 101.36 115.98 98.72 117 96 C118.01550753 93.71416397 119.05910119 91.44062072 120.12890625 89.1796875 C120.4276918 88.54602264 120.72647736 87.91235779 121.03431702 87.25949097 C122.01981434 85.17153045 123.0098576 83.08576125 124 81 C124.70842189 79.50174641 125.41658635 78.00337107 126.12451172 76.50488281 C128.39132645 71.70960328 130.66407933 66.91715038 132.9375 62.125 C147.63706619 31.14090415 147.63706619 31.14090415 162 0 C187.41 0 212.82 0 239 0 C236.74792379 13.51245725 236.74792379 13.51245725 235.40625 19.8671875 C235.18474777 20.92013504 235.18474777 20.92013504 234.95877075 21.99435425 C234.47520586 24.28848116 233.98774054 26.58175753 233.5 28.875 C233.1540587 30.51072624 232.80819479 32.14646885 232.46240234 33.78222656 C229.14680977 49.43204809 225.7439471 65.06313749 222.32617188 80.69091797 C222.1196701 81.63637482 221.91316833 82.58183167 221.70040894 83.55593872 C221.31669785 85.31219469 220.93226323 87.06829283 220.54690552 88.82418823 C219.4938363 93.64494696 218.49898011 98.47402508 217.53912354 103.31414795 C216.49120682 108.5347497 215.38373723 113.74299493 214.28515625 118.953125 C214.02874863 120.17094666 213.772341 121.38876831 213.50816345 122.64349365 C212.96800262 125.20850582 212.42759824 127.77346671 211.88696289 130.33837891 C211.0679458 134.2241627 210.24972862 138.11011426 209.43164062 141.99609375 C208.90369322 144.50261415 208.37569991 147.00912488 207.84765625 149.515625 C207.60692886 150.65880188 207.36620148 151.80197876 207.11817932 152.97979736 C205.64654183 159.96002604 204.15933179 166.93676003 202.65989685 173.91107178 C201.05449507 181.42583847 199.64890517 188.9375999 198.46484375 196.53125 C198 199 198 199 197 201 C178.85 201 160.7 201 142 201 C144.24841605 186.38529567 144.24841605 186.38529567 145.6640625 180.33984375 C145.81710846 179.67903809 145.97015442 179.01823242 146.12783813 178.33740234 C146.45415552 176.93034162 146.7825405 175.52375891 147.11291504 174.11764526 C148.00974318 170.29949832 148.89025483 166.4775718 149.7734375 162.65625 C150.04800781 161.47119118 150.04800781 161.47119118 150.328125 160.26219177 C152.35517034 151.4990924 154.3060761 142.71934777 156.25 133.9375 C156.56981814 132.4940579 156.8896422 131.05061711 157.20947266 129.60717773 C157.51986689 128.20556865 157.83025112 126.80395734 158.140625 125.40234375 C158.36723312 124.37957085 158.36723312 124.37957085 158.59841919 123.33613586 C159.41701808 119.63987382 160.23235049 115.94292384 161.04394531 112.24511719 C161.393861 110.65689681 161.74379543 109.06868056 162.09375 107.48046875 C162.2511969 106.75963608 162.4086438 106.03880341 162.57086182 105.29612732 C164.1518711 98.13517355 166.04068592 91.06603694 168 84 C166.62616527 85.37383473 166.09374387 86.86718609 165.29760742 88.64257812 C164.95022018 89.41428345 164.60283295 90.18598877 164.24491882 90.9810791 C163.8689003 91.8226355 163.49288177 92.66419189 163.10546875 93.53125 C162.522528 94.82887268 162.522528 94.82887268 161.92781067 96.15270996 C160.67890149 98.93418582 159.433186 101.71707937 158.1875 104.5 C157.3589291 106.34644623 156.5301555 108.19280152 155.70117188 110.0390625 C152.78741812 116.53152081 149.8741721 123.02407539 146.9934082 129.53125 C144.97642356 134.07235145 142.90081492 138.58508975 140.8125 143.09375 C140.42811768 143.92531616 140.04373535 144.75688232 139.64770508 145.61364746 C138.023598 149.12715992 136.39796232 152.63996448 134.77246094 156.15283203 C133.576939 158.73705768 132.38220461 161.32164642 131.1875 163.90625 C130.82696533 164.68464233 130.46643066 165.46303467 130.0949707 166.26501465 C127.99917701 170.79925384 125.94292144 175.34899905 123.9230957 179.91760254 C123.28984233 181.34614914 122.65138127 182.77239524 122.00854492 184.19665527 C119.50829389 189.75186082 117.26815204 195.32961989 115 201 C99.82 201 84.64 201 69 201 C68.25850449 173.45873818 67.78780496 145.9232542 67.4375 118.375 C67.4208473 117.06573799 67.4208473 117.06573799 67.40385818 115.73002625 C67.26544444 104.82006331 67.13093397 93.91005522 67 83 C66.77161438 84.1723822 66.54322876 85.3447644 66.30792236 86.55267334 C63.68895044 99.88314311 60.78839354 113.13942295 57.796875 126.390625 C57.30914049 128.55917812 56.82161602 130.72777849 56.33428955 132.89642334 C55.06726651 138.53220827 53.79744174 144.16735812 52.52697754 149.80236816 C50.9945453 156.60212996 49.4656911 163.40269707 47.93621826 170.203125 C45.62684558 180.46936037 43.31300725 190.73457986 41 201 C22.52 201 4.04 201 -15 201 C-14.31268639 196.18880476 -13.54325538 191.76634678 -12.3984375 187.08203125 C-12.24133301 186.4357074 -12.08422852 185.78938354 -11.92236328 185.12347412 C-11.40983354 183.01900545 -10.89247855 180.91575672 -10.375 178.8125 C-10.01360869 177.33265607 -9.65244648 175.85275618 -9.29150391 174.37280273 C-7.02415906 165.09306477 -4.70716841 155.82615403 -2.375 146.5625 C-0.26732217 138.18496269 1.76405507 129.79666346 3.6875 121.375 C4.03216309 119.89374634 4.03216309 119.89374634 4.38378906 118.38256836 C5.72502891 112.61170744 7.03940047 106.83733391 8.30224609 101.04882812 C9.53814999 95.3869234 10.80918487 89.733661 12.09683228 84.08331299 C12.61364971 81.78648624 13.11845558 79.48692216 13.6109314 77.18475342 C14.31113708 73.9200005 15.05321544 70.66734166 15.8046875 67.4140625 C16.00684372 66.42351868 16.20899994 65.43297485 16.4172821 64.41241455 C18.00857515 57.78908286 18.00857515 57.78908286 20.87336731 55.50897217 C22.89577803 54.47603142 24.83901382 53.68943588 27 53 C28.01964844 52.62875 29.03929687 52.2575 30.08984375 51.875 C31.02957031 51.58625 31.96929687 51.2975 32.9375 51 C37.34403304 49.58835939 41.4957364 47.95959091 45.68530273 46.00585938 C48.01776317 44.99228096 50.35226762 44.16680474 52.76953125 43.37890625 C53.56593018 43.11795166 54.3623291 42.85699707 55.18286133 42.58813477 C55.78251709 42.39405029 56.38217285 42.19996582 57 42 C56.04746338 41.98541748 55.09492676 41.97083496 54.11352539 41.95581055 C50.5404115 41.8973311 46.96789553 41.82010727 43.39526367 41.73754883 C41.85630074 41.70453079 40.31722344 41.67642878 38.77807617 41.65356445 C27.24120677 41.47757196 17.55406022 41.23705088 8.7890625 32.9609375 C-0.40722436 22.88116457 0 14.21057918 0 0 Z " fill="#FBFCFC" transform="translate(318,393)"/>
<path d="M0 0 C1.25964569 0.00090637 1.25964569 0.00090637 2.54473877 0.00183105 C15.6444224 0.02737075 28.56892377 0.38922665 41.5625 2.1875 C42.48498535 2.31108887 43.4074707 2.43467773 44.35791016 2.56201172 C104.2956262 10.85458521 161.30051502 36.62236864 206.6796875 76.6640625 C208.55086711 78.30197853 210.47204515 79.88506444 212.4453125 81.3984375 C213.14398437 81.98882812 213.84265625 82.57921875 214.5625 83.1875 C214.5625 83.8475 214.5625 84.5075 214.5625 85.1875 C215.10261719 85.40148437 215.64273438 85.61546875 216.19921875 85.8359375 C219.41286901 87.67382674 221.81190255 90.18402359 224.375 92.8125 C224.9105249 93.35592041 225.4460498 93.89934082 225.99780273 94.45922852 C230.02021863 98.56817418 233.85464255 102.79241035 237.5625 107.1875 C238.34625 108.08210938 239.13 108.97671875 239.9375 109.8984375 C253.22881022 125.15553793 264.6778659 141.5396364 274.5625 159.1875 C275.06523438 160.08452637 275.56796875 160.98155273 276.0859375 161.90576172 C295.60585185 197.13697768 308.86851413 236.95420808 312.5625 277.1875 C312.64717529 278.08275391 312.73185059 278.97800781 312.8190918 279.90039062 C313.59501918 288.83355633 313.76236478 297.7285323 313.75 306.6875 C313.74959213 307.80600845 313.74959213 307.80600845 313.74917603 308.94711304 C313.72882074 321.13504134 313.13620331 333.09288819 311.5625 345.1875 C311.36550258 346.87365323 311.16889572 348.55985214 310.97265625 350.24609375 C305.46780396 395.03865335 288.72179579 440.3129542 262.5625 477.1875 C261.7395275 478.36063792 260.91661393 479.53381718 260.09375 480.70703125 C245.20601289 501.82756484 228.41240656 522.51759534 208.5625 539.1875 C207.78777344 539.85007812 207.01304687 540.51265625 206.21484375 541.1953125 C203.37050506 543.57805063 200.47719309 545.89205761 197.5625 548.1875 C196.55413086 548.98800781 196.55413086 548.98800781 195.52539062 549.8046875 C177.92329854 563.68889686 158.90887143 575.8159855 138.54541016 585.26171875 C136.41800885 586.25496004 134.30967059 587.28377571 132.19921875 588.3125 C91.24280695 607.89364701 45.74988461 616.43782246 0.5625 616.375 C-0.65172134 616.37409363 -0.65172134 616.37409363 -1.89047241 616.37316895 C-15.15703761 616.34641032 -28.26980022 615.93215423 -41.4375 614.1875 C-42.37706543 614.06391113 -43.31663086 613.94032227 -44.28466797 613.81298828 C-107.72220727 605.09178016 -171.82078873 576.30785642 -216.7421875 529.8828125 C-218.59385964 527.97428496 -218.59385964 527.97428496 -221.5 525.6875 C-224.45508973 523.17253002 -226.83639277 520.54287028 -229.33984375 517.59375 C-231.36707427 515.26828631 -233.47245948 513.03310629 -235.59960938 510.79931641 C-247.03084496 498.72040838 -256.45862232 485.14775676 -265.4375 471.1875 C-266.13617188 470.10984375 -266.83484375 469.0321875 -267.5546875 467.921875 C-272.395313 460.27481682 -276.52420135 452.39317765 -280.44189453 444.24804688 C-281.41410085 442.23592786 -282.40654226 440.23490005 -283.40234375 438.234375 C-318.60680844 366.61240135 -320.97896331 282.8262349 -295.64941406 207.77514648 C-278.46307413 157.84006075 -245.98333191 110.2885469 -205.4375 76.1875 C-204.89480469 75.73101074 -204.35210937 75.27452148 -203.79296875 74.80419922 C-158.72174242 37.07996883 -105.44690378 12.18315353 -47.25 3.375 C-46.21027039 3.21701935 -46.21027039 3.21701935 -45.14953613 3.05584717 C-30.065015 0.79267613 -15.22816593 -0.02028369 0 0 Z M-57.4375 17.1875 C-58.2315625 17.34025391 -59.025625 17.49300781 -59.84375 17.65039062 C-83.90161329 22.36798726 -107.47192766 30.30703116 -129.4375 41.1875 C-130.3238916 41.61724121 -131.2102832 42.04698242 -132.12353516 42.48974609 C-152.56020776 52.44990871 -171.88547797 64.70708182 -189.4375 79.1875 C-189.98535156 79.63528809 -190.53320312 80.08307617 -191.09765625 80.54443359 C-205.61724113 92.48573649 -219.29699977 105.83195028 -231.4375 120.1875 C-231.92331543 120.76121338 -232.40913086 121.33492676 -232.90966797 121.92602539 C-249.25227643 141.46438384 -262.45369733 163.24941238 -273.4375 186.1875 C-273.89769531 187.12722656 -274.35789062 188.06695312 -274.83203125 189.03515625 C-278.0606918 195.83071797 -280.53253909 202.84920231 -282.96875 209.95703125 C-283.84090458 212.49911203 -284.75163583 215.00252925 -285.71875 217.51171875 C-294.81926553 241.2255621 -299.40653692 267.60009599 -299.74609375 292.96484375 C-299.76131073 294.07731979 -299.77652771 295.18979584 -299.79220581 296.33598328 C-300.07787886 322.00117542 -299.21208798 346.15958204 -293.4375 371.1875 C-293.00119887 373.23770697 -292.56740019 375.28844892 -292.13671875 377.33984375 C-289.10918765 391.29313199 -285.09902673 405.25581766 -278.87890625 418.14453125 C-277.74245868 420.54369834 -276.68295563 422.94204911 -275.65234375 425.38671875 C-266.73261208 446.30797526 -255.19412569 466.07531174 -241.4375 484.1875 C-240.34695313 485.62416016 -240.34695313 485.62416016 -239.234375 487.08984375 C-235.23360866 492.20105902 -230.95359583 497.03594266 -226.578125 501.828125 C-224.71996533 503.8761696 -222.91722579 505.9570697 -221.125 508.0625 C-213.87098208 516.3793159 -205.86878179 524.0778786 -197.4375 531.1875 C-196.48488281 532.01765625 -195.53226562 532.8478125 -194.55078125 533.703125 C-186.85084797 540.38295634 -178.8873967 546.48749406 -170.4375 552.1875 C-169.44580811 552.86135742 -169.44580811 552.86135742 -168.43408203 553.54882812 C-158.1251113 560.48741924 -147.39824907 566.47984566 -136.375 572.1875 C-135.75648163 572.50882904 -135.13796326 572.83015808 -134.5007019 573.16122437 C-127.28642509 576.89559034 -120.05040684 580.33863219 -112.4375 583.1875 C-111.69105225 583.47737793 -110.94460449 583.76725586 -110.17553711 584.06591797 C-98.76363788 588.49025416 -87.28207498 592.1222622 -75.4375 595.1875 C-74.37144531 595.47367188 -73.30539062 595.75984375 -72.20703125 596.0546875 C-38.74210494 604.81608521 -4.00877668 605.86608968 30.3125 602.875 C31.00921814 602.81614624 31.70593628 602.75729248 32.42376709 602.69665527 C56.40758522 600.62714049 79.65424207 594.87532807 102.34179688 586.94824219 C105.16588477 585.98079959 108.02018421 585.12187617 110.875 584.25 C117.7544597 581.95684677 124.08170797 578.57355154 130.50244141 575.24316406 C132.50445133 574.21724668 134.51899567 573.22396176 136.54296875 572.2421875 C171.89593962 555.06114128 205.78716518 529.97253324 230.3046875 498.99609375 C232.27001387 496.55133655 234.31137971 494.20268131 236.39306641 491.85742188 C275.17748182 447.69985067 300.58045819 380.81334987 301.5625 322.1875 C301.60117188 320.38659912 301.60117188 320.38659912 301.640625 318.54931641 C302.01533424 299.89084178 301.69713531 281.64033946 298.5625 263.1875 C298.37445801 262.06633789 298.18641602 260.94517578 297.99267578 259.79003906 C290.61017476 217.30395122 273.90370536 176.15553198 248.5625 141.1875 C247.94246094 140.30449219 247.32242188 139.42148437 246.68359375 138.51171875 C233.6718248 120.17571866 218.72680947 102.75529769 201.5625 88.1875 C200.16257812 86.95580078 200.16257812 86.95580078 198.734375 85.69921875 C182.92444557 71.88708027 165.86026764 60.43330339 147.5625 50.1875 C146.76376465 49.73391113 145.9650293 49.28032227 145.14208984 48.81298828 C129.73978313 40.11410808 113.3693863 33.30957773 96.55175781 27.8425293 C94.77107008 27.25617863 93.00711414 26.61957348 91.24609375 25.9765625 C62.71139401 15.74390243 30.89731046 11.99954147 0.72216797 12.00219727 C-2.03564137 12.00002119 -4.79304285 11.98183993 -7.55078125 11.96289062 C-24.49080609 11.90906334 -40.82173936 13.90659133 -57.4375 17.1875 Z " fill="#1F3A70" transform="translate(511.4375,194.8125)"/>
<path d="M0 0 C19.14 0 38.28 0 58 0 C57.37713043 6.2286957 56.7875771 11.63705819 55.43359375 17.62109375 C55.27895157 18.31179962 55.12430939 19.00250549 54.96498108 19.71414185 C54.46141229 21.95656416 53.94950081 24.19698946 53.4375 26.4375 C53.08282186 28.01087112 52.72866406 29.58435961 52.375 31.15795898 C50.50540497 39.45737071 48.59995572 47.74853801 46.69140625 56.0390625 C46.5062999 56.84438919 46.32119354 57.64971588 46.13047791 58.47944641 C45.23843483 62.35980792 44.34284068 66.23926326 43.43920898 70.11694336 C43.11563256 71.5167435 42.79214153 72.91656338 42.46875 74.31640625 C42.18451172 75.53787354 41.90027344 76.75934082 41.60742188 78.01782227 C40.90020703 80.98270514 40.90020703 80.98270514 41 84 C41.38929688 83.36835938 41.77859375 82.73671875 42.1796875 82.0859375 C45.86966861 76.18536862 49.75337085 70.46082768 53.82055664 64.81665039 C62.81259566 52.33556054 71.55940588 39.6817835 80.22119141 26.9699707 C85.35335093 19.4516964 90.60047585 12.01656513 95.87768555 4.59960938 C96.94200541 3.08265838 97.97209442 1.54185837 99 0 C101.63223267 -0.36076355 101.63223267 -0.36076355 105.01025391 -0.34057617 C106.27141022 -0.34034958 107.53256653 -0.34012299 108.8319397 -0.33988953 C110.21348421 -0.32456844 111.59502513 -0.30892044 112.9765625 -0.29296875 C114.38617503 -0.28737433 115.79579338 -0.2831035 117.20541382 -0.28010559 C120.91768464 -0.26864454 124.629604 -0.23916704 128.34173584 -0.20599365 C132.12881719 -0.1753196 135.91595526 -0.16160599 139.703125 -0.14648438 C147.135577 -0.11429811 154.56773928 -0.0630871 162 0 C162 0.66 162 1.32 162 2 C161.34 2 160.68 2 160 2 C159.72671875 2.57621094 159.4534375 3.15242188 159.171875 3.74609375 C153.84787769 13.98591525 145.70672253 23.22639149 138.86279297 32.47998047 C136.48341064 35.6988513 134.10890621 38.92129741 131.73510742 42.14428711 C130.57288871 43.72220301 129.41028743 45.2998372 128.24731445 46.87719727 C125.3496717 50.80749557 122.45593684 54.74055513 119.5703125 58.6796875 C112.53201477 68.2770033 105.39353965 77.79004595 98.15283203 87.23583984 C97.50942871 88.0758252 96.86602539 88.91581055 96.203125 89.78125 C95.34702637 90.8959668 95.34702637 90.8959668 94.47363281 92.03320312 C91.74852032 95.27067033 91.74852032 95.27067033 91.23120117 99.24609375 C92.15561509 102.5574272 93.20028463 105.80501317 94.30078125 109.0625 C94.53308945 109.75386047 94.76539764 110.44522095 95.00474548 111.15753174 C95.50792195 112.65462716 96.01236766 114.15129645 96.51794434 115.64758301 C97.88498965 119.69495284 99.24153821 123.74583303 100.59765625 127.796875 C100.87882294 128.63643738 101.15998962 129.47599976 101.44967651 130.34100342 C104.7010926 140.06822711 107.85404373 149.82700356 111.00442505 159.58731079 C114.51931884 170.47483165 118.08067449 181.34363186 121.76660156 192.17480469 C122.0653418 193.05942383 122.36408203 193.94404297 122.671875 194.85546875 C122.9306543 195.61496826 123.18943359 196.37446777 123.45605469 197.15698242 C124 199 124 199 124 201 C103.21 201 82.42 201 61 201 C59.02 194.07 57.04 187.14 55 180 C53.55047512 176.00893752 53.55047512 176.00893752 52.0546875 172.03515625 C50.55581013 167.72172026 49.35436394 163.3341917 48.125 158.9375 C46.01706762 151.4025926 43.71924708 143.97306765 41.19335938 136.56860352 C38.55190469 128.78349388 36.26076118 120.90266077 34 113 C29.2232655 132.97937893 24.77790617 153.02156498 20.46533203 173.10595703 C20.25814545 174.06759766 20.05095886 175.02923828 19.8374939 176.02001953 C19.45179685 177.81081856 19.06770831 179.60196527 18.68569946 181.39355469 C17.26697872 187.97676642 15.63609237 194.45563053 14 201 C-4.48 201 -22.96 201 -42 201 C-41.34708765 194.47087647 -40.60578482 188.38065636 -39.21484375 182.03125 C-39.03823212 181.20549469 -38.86162048 180.37973938 -38.67965698 179.52896118 C-38.10483615 176.85132943 -37.521545 174.17563362 -36.9375 171.5 C-36.53138328 169.62095495 -36.12537888 167.74188561 -35.71948242 165.86279297 C-32.89650294 152.8511601 -29.90311736 139.88461077 -26.8125 126.93432617 C-24.74299595 118.24961225 -22.7909975 109.54617031 -20.9375 100.8125 C-20.69572021 99.70398682 -20.45394043 98.59547363 -20.20483398 97.45336914 C-18.99749534 91.88769497 -17.86302284 86.32264929 -16.88142395 80.71321106 C-16.37243638 77.85167017 -15.82165809 74.99896965 -15.26516724 72.14633179 C-15.00837538 70.77484034 -14.77041615 69.39966655 -14.552948 68.02139282 C-13.86926529 63.71185297 -13.05829779 59.8652937 -11 56 C-7.23776637 53.32992766 -3.43193263 52.15689674 1 51 C2.31112458 50.53372609 3.6183238 50.05596887 4.91796875 49.55859375 C7.10544584 48.80852693 9.29294601 48.05852741 11.48046875 47.30859375 C15.72914055 45.72889891 19.85783752 43.8409611 24 42 C13.44 41.67 2.88 41.34 -8 41 C-6.88006757 30.92060811 -6.88006757 30.92060811 -6.0625 27.5625 C-5.33535581 24.46679053 -4.66772389 21.37194657 -4.0625 18.25 C-2.82627759 12.14160692 -1.40137654 6.07263169 0 0 Z " fill="#FBFBFC" transform="translate(576,393)"/>
<path d="M0 0 C1.38345612 0.00323273 1.38345612 0.00323273 2.79486084 0.00653076 C17.55921297 0.06170135 31.92801557 0.79513945 46.5 3.3125 C47.78116699 3.52712891 49.06233398 3.74175781 50.38232422 3.96289062 C65.39300405 6.49644117 80.08623553 9.31548779 94.5 14.3125 C96.41228789 14.82899409 98.32880778 15.33018106 100.25 15.8125 C148.99160006 28.78628847 199.25489566 64.97425722 231.5 103.3125 C232.02303711 103.92851074 232.54607422 104.54452148 233.08496094 105.17919922 C240.75267309 114.23034968 248.02414145 123.36244536 254.5 133.3125 C254.95052734 133.99473633 255.40105469 134.67697266 255.86523438 135.37988281 C265.74366052 150.38216551 275.42042463 166.07339493 281.3046875 183.1328125 C282.3803513 185.99421882 283.5939176 188.70095901 284.88671875 191.46875 C301.8868355 228.54799068 305.36348249 270.10119971 304.5 310.3125 C304.48453125 311.23595215 304.4690625 312.1594043 304.453125 313.11083984 C303.93541828 338.93685547 297.14428582 365.45082933 289.375 389.9375 C289.05047852 390.96214355 288.72595703 391.98678711 288.39160156 393.04248047 C286.77461018 397.97471457 284.99719663 402.61486578 282.58056641 407.20751953 C281.2915283 409.71861002 280.13810309 412.27552502 278.984375 414.8515625 C269.43526391 436.13562094 258.34503063 456.20156264 243.5 474.3125 C242.53547464 475.52265413 241.57204217 476.73367968 240.609375 477.9453125 C233.58482923 486.74456975 226.30634265 495.19882103 218.5 503.3125 C218.00113281 503.83328125 217.50226562 504.3540625 216.98828125 504.890625 C210.22254929 511.91724637 203.18304911 518.28250205 195.5 524.3125 C194.44285509 525.1704534 193.38691148 526.02988864 192.33203125 526.890625 C174.73031552 541.14318249 155.53136669 552.53976555 135.2265625 562.47265625 C132.94535941 563.58895274 130.70310111 564.73758103 128.4609375 565.93359375 C120.49413238 570.15841465 112.25858423 572.89470347 103.69140625 575.60546875 C100.50220765 576.63442588 97.34945732 577.76554129 94.1875 578.875 C88.20904007 580.86568634 82.18973367 582.47027504 76.0625 583.9375 C75.25321045 584.13158447 74.4439209 584.32566895 73.61010742 584.52563477 C60.23135508 587.63106395 46.92856462 589.8445328 33.25 591 C32.52476135 591.06320435 31.79952271 591.12640869 31.05230713 591.19152832 C11.25589387 592.89118494 -8.70105818 593.18773017 -28.5 591.3125 C-30.31757812 591.14621094 -30.31757812 591.14621094 -32.171875 590.9765625 C-53.20951827 588.70106231 -74.16378558 583.61710508 -94.1875 576.875 C-95.34572266 576.49279297 -96.50394531 576.11058594 -97.69726562 575.71679688 C-104.14034908 573.56178486 -110.3576252 571.2110497 -116.5 568.3125 C-117.33845459 567.92763428 -118.17690918 567.54276855 -119.04077148 567.14624023 C-137.47598437 558.65754528 -155.08554908 549.29936876 -171.5 537.3125 C-172.4796875 536.60738281 -173.459375 535.90226563 -174.46875 535.17578125 C-193.61077357 521.14669293 -212.29275773 504.54710995 -227.5 486.3125 C-228.36625 485.27996094 -228.36625 485.27996094 -229.25 484.2265625 C-239.77609803 471.37595115 -249.19780454 457.85556797 -257.33251953 443.37841797 C-258.49284788 441.32515605 -259.67844757 439.28853605 -260.87109375 437.25390625 C-265.46019018 429.3620801 -269.42109096 421.37464993 -272.953125 412.95703125 C-274.21822325 409.9763831 -275.57343942 407.09156975 -277 404.1875 C-282.92305268 391.09852456 -286.53964752 376.97056597 -289.6875 363 C-290.02575806 361.51209961 -290.02575806 361.51209961 -290.37084961 359.99414062 C-291.13878226 356.44374224 -291.82861262 352.88203212 -292.5 349.3125 C-292.66656097 348.45507202 -292.83312195 347.59764404 -293.00473022 346.7142334 C-295.97885323 331.13544627 -297.10934047 316.04195202 -296.96655273 300.19140625 C-296.93745284 296.68181211 -296.94604169 293.17372776 -296.95898438 289.6640625 C-296.92484613 252.82164905 -289.13031878 217.14585018 -274.5 183.3125 C-274.14969727 182.48516357 -273.79939453 181.65782715 -273.43847656 180.80541992 C-261.71297552 153.23687136 -245.5023599 126.99134902 -225.01953125 105.04296875 C-223.04922421 102.90770577 -221.14198276 100.74679092 -219.24609375 98.546875 C-209.35010905 87.2000304 -198.48552196 76.43580776 -186.5 67.3125 C-185.21648619 66.30200162 -183.93401794 65.29017441 -182.65234375 64.27734375 C-144.34195509 34.21636979 -99.2610265 13.46574826 -51.33056641 4.82568359 C-49.52312364 4.497993 -47.71777795 4.15836102 -45.91552734 3.80322266 C-30.61066815 0.83568919 -15.5578319 -0.06579927 0 0 Z M-86.52734375 24.1875 C-89.45116259 25.29401751 -92.35937601 26.11970366 -95.375 26.9375 C-144.63488866 41.81181846 -193.27477603 78.955866 -224.5 119.3125 C-225.49280673 120.55393182 -226.48634783 121.79477657 -227.48046875 123.03515625 C-246.37641408 146.86981456 -261.14397302 173.91553717 -271.19140625 202.59765625 C-271.9192799 204.6639483 -272.65734339 206.72700058 -273.43481445 208.77514648 C-275.97069432 215.50913533 -277.91357923 222.24857313 -279.5625 229.25 C-279.81926514 230.33176514 -280.07603027 231.41353027 -280.34057617 232.52807617 C-284.41269033 250.13166145 -286.62535317 267.82675256 -286.703125 285.90234375 C-286.70882507 286.96755753 -286.71452515 288.0327713 -286.72039795 289.13026428 C-286.72977538 291.37141958 -286.73635272 293.61258821 -286.74023438 295.85375977 C-286.74988701 299.21070648 -286.78095991 302.56702575 -286.8125 305.92382812 C-286.8799753 319.6509105 -285.95040918 332.80350747 -283.5 346.3125 C-283.30647949 347.40377197 -283.11295898 348.49504395 -282.91357422 349.61938477 C-282.43184351 352.13702817 -281.89627696 354.62925037 -281.3125 357.125 C-281.10818359 358.0111499 -280.90386719 358.8972998 -280.69335938 359.81030273 C-278.02924814 370.87698218 -274.29971576 381.59396114 -270.5 392.3125 C-269.90445313 394.05660156 -269.90445313 394.05660156 -269.296875 395.8359375 C-261.63811586 417.15472226 -250.41009021 437.74631919 -237.5 456.3125 C-236.87480469 457.21484375 -236.24960937 458.1171875 -235.60546875 459.046875 C-228.30252798 469.33941066 -219.9898631 478.79646252 -211.47265625 488.09375 C-209.39160552 490.43441696 -207.45076924 492.8628854 -205.5 495.3125 C-200.79866539 500.2903837 -195.62460168 504.77946308 -190.5 509.3125 C-189.9932373 509.76544434 -189.48647461 510.21838867 -188.96435547 510.68505859 C-174.93549044 523.1919444 -159.85192381 534.05201256 -143.5 543.3125 C-142.7565332 543.73692383 -142.01306641 544.16134766 -141.24707031 544.59863281 C-138.87730142 545.94845161 -136.50256773 547.28897016 -134.125 548.625 C-133.39990234 549.03387451 -132.67480469 549.44274902 -131.92773438 549.86401367 C-126.90232719 552.65265572 -121.7908992 555.07157951 -116.5 557.3125 C-115.61489746 557.68753662 -114.72979492 558.06257324 -113.81787109 558.44897461 C-90.87028356 568.05197719 -68.04704875 575.17142493 -43.5 579.3125 C-42.55624512 579.47766113 -41.61249023 579.64282227 -40.64013672 579.81298828 C7.41356697 587.91550467 63.66416616 583.00127921 108.5 563.3125 C110.06245667 562.69579909 111.62638085 562.08280898 113.19140625 561.47265625 C140.78788023 550.47470334 166.73908175 535.41604761 189.5 516.3125 C190.01062988 515.8906543 190.52125977 515.46880859 191.04736328 515.03417969 C203.10785884 505.05817083 214.42219033 494.30667169 224.5 482.3125 C225.29277344 481.42046875 226.08554687 480.5284375 226.90234375 479.609375 C234.98335284 470.44133412 241.79916125 460.51761564 248.5 450.3125 C249.21929688 449.22453125 249.93859375 448.1365625 250.6796875 447.015625 C256.84935225 437.33872345 261.96905682 427.06753893 267.18896484 416.85839844 C268.24776905 414.80230714 269.32502688 412.76031408 270.42578125 410.7265625 C274.5782721 402.89369862 277.00816068 394.7793949 279.5 386.3125 C280.03144926 384.66333906 280.57105568 383.01674171 281.125 381.375 C281.44440552 380.42572632 281.44440552 380.42572632 281.77026367 379.45727539 C282.23806069 378.08236846 282.71474137 376.71043325 283.20263672 375.3425293 C285.30098186 369.33709086 286.72874951 363.29061041 288 357.0625 C288.21430664 356.02416016 288.42861328 354.98582031 288.64941406 353.91601562 C290.69357506 343.77229061 292.20583939 333.57596931 293.5 323.3125 C293.67418457 322.07846436 293.84836914 320.84442871 294.02783203 319.57299805 C294.56599174 315.24298971 294.64454056 310.97229811 294.6328125 306.61328125 C294.63376923 305.81520554 294.63472595 305.01712982 294.63571167 304.19487 C294.63638736 302.52175822 294.6345761 300.84864373 294.63037109 299.17553711 C294.62499268 296.62152225 294.63034782 294.06768151 294.63671875 291.51367188 C294.63605828 289.88020795 294.63477775 288.24674413 294.6328125 286.61328125 C294.63483673 285.85485428 294.63686096 285.09642731 294.63894653 284.3150177 C294.62216692 280.51121856 294.35283586 277.0171755 293.5 273.3125 C293.42286998 271.16714271 293.36274444 269.02115527 293.3125 266.875 C291.78106474 235.56147616 280.95667429 204.33243804 267.5 176.3125 C267.18514648 175.65411133 266.87029297 174.99572266 266.54589844 174.31738281 C256.20210342 152.79850101 243.28244282 132.28457903 227.5 114.3125 C226.34951172 112.99765625 226.34951172 112.99765625 225.17578125 111.65625 C212.8525942 97.91768925 199.99990908 84.45853041 185.10009766 73.50683594 C183.51337646 72.32248438 181.96523089 71.08701896 180.41796875 69.8515625 C171.26765547 62.55433153 161.50421245 56.36974629 151.5 50.3125 C150.83661621 49.90644531 150.17323242 49.50039063 149.48974609 49.08203125 C133.84183754 39.57731561 116.75359121 32.34975292 99.5 26.3125 C98.76080322 26.05355957 98.02160645 25.79461914 97.26000977 25.52783203 C89.44076607 22.81980747 81.44843366 20.60616078 73.5 18.3125 C72.42693604 17.9839502 71.35387207 17.65540039 70.24829102 17.31689453 C66.33354261 16.26789597 62.44869523 15.60424922 58.44140625 15.05859375 C57.6934227 14.95281509 56.94543915 14.84703644 56.17478943 14.73805237 C53.80464883 14.40406937 51.43361407 14.07699188 49.0625 13.75 C47.47584954 13.52713307 45.88926036 13.30382945 44.30273438 13.08007812 C38.89777546 12.32045274 38.89777546 12.32045274 33.48999023 11.58131409 C31.51191753 11.31410986 29.53536241 11.03574934 27.55883789 10.75732422 C23.16227764 10.21699013 18.79317818 10.11593442 14.3671875 10.07421875 C13.5053334 10.0644249 12.64347931 10.05463104 11.75550842 10.04454041 C-21.52812931 9.74498338 -55.14894757 11.98690853 -86.52734375 24.1875 Z " fill="#F4F6F8" transform="translate(508.5,206.6875)"/>
<path d="M0 0 C1.25964569 0.00090637 1.25964569 0.00090637 2.54473877 0.00183105 C15.6444224 0.02737075 28.56892377 0.38922665 41.5625 2.1875 C42.48498535 2.31108887 43.4074707 2.43467773 44.35791016 2.56201172 C104.2956262 10.85458521 161.30051502 36.62236864 206.6796875 76.6640625 C208.55086711 78.30197853 210.47204515 79.88506444 212.4453125 81.3984375 C213.14398437 81.98882812 213.84265625 82.57921875 214.5625 83.1875 C214.5625 83.8475 214.5625 84.5075 214.5625 85.1875 C215.10261719 85.40148437 215.64273438 85.61546875 216.19921875 85.8359375 C219.41286901 87.67382674 221.81190255 90.18402359 224.375 92.8125 C224.9105249 93.35592041 225.4460498 93.89934082 225.99780273 94.45922852 C230.02021863 98.56817418 233.85464255 102.79241035 237.5625 107.1875 C238.34625 108.08210938 239.13 108.97671875 239.9375 109.8984375 C253.22881022 125.15553793 264.6778659 141.5396364 274.5625 159.1875 C275.06523438 160.08452637 275.56796875 160.98155273 276.0859375 161.90576172 C289.13238267 185.45310517 300.57771684 211.59001438 305.5625 238.1875 C304.9025 238.1875 304.2425 238.1875 303.5625 238.1875 C303.2325 238.8475 302.9025 239.5075 302.5625 240.1875 C302.27117188 239.09695313 301.97984375 238.00640625 301.6796875 236.8828125 C297.07704942 219.8583902 291.62165506 203.35766068 284.5625 187.1875 C284.29356934 186.56842773 284.02463867 185.94935547 283.74755859 185.31152344 C272.69315541 160.11965415 257.8359655 137.51220338 240.5625 116.1875 C240.07346191 115.57986816 239.58442383 114.97223633 239.08056641 114.34619141 C194.02647804 58.76852035 128.03137193 22.02861206 58.1875 8.375 C57.19113525 8.1800293 56.19477051 7.98505859 55.16821289 7.78417969 C38.36614423 4.68730104 21.88356761 3.83913336 4.82397461 3.87182617 C1.39729751 3.87497948 -2.02850729 3.85145569 -5.45507812 3.82617188 C-20.00569107 3.78520687 -34.07473065 4.86456849 -48.4375 7.1875 C-49.18175735 7.30753387 -49.92601471 7.42756775 -50.69282532 7.55123901 C-55.3027483 8.30758001 -59.87282195 9.19742865 -64.4375 10.1875 C-65.79367432 10.47898926 -65.79367432 10.47898926 -67.17724609 10.77636719 C-88.46216745 15.42603654 -108.67083412 22.00338706 -128.40576172 31.24365234 C-130.35633443 32.14979439 -132.31744473 33.02634878 -134.28515625 33.89453125 C-173.69096512 51.45284933 -211.66848028 81.41598836 -238.4375 115.1875 C-239.34675487 116.28568228 -240.25832321 117.38195212 -241.171875 118.4765625 C-255.06442517 135.25524105 -266.77446114 153.67610372 -276.4375 173.1875 C-277.10652344 174.49074219 -277.10652344 174.49074219 -277.7890625 175.8203125 C-278.20929688 176.64273438 -278.62953125 177.46515625 -279.0625 178.3125 C-279.48789062 179.14007813 -279.91328125 179.96765625 -280.3515625 180.8203125 C-281.33038059 182.95399511 -281.96241252 184.8965226 -282.4375 187.1875 C-283.0975 187.1875 -283.7575 187.1875 -284.4375 187.1875 C-284.55351562 187.88488281 -284.66953125 188.58226562 -284.7890625 189.30078125 C-285.50601031 192.49249469 -286.59271971 195.3403345 -287.8125 198.375 C-289.69219849 203.16607058 -291.3453679 207.93354712 -292.76171875 212.87890625 C-293.40356386 215.07156788 -294.12378291 217.21776163 -294.875 219.375 C-298.47703177 230.06794249 -301.07081857 241.16442397 -303.4375 252.1875 C-303.6953125 253.38503906 -303.953125 254.58257812 -304.21875 255.81640625 C-310.25198377 285.71107959 -309.85333998 316.97950046 -306.4375 347.1875 C-306.34098145 348.04520996 -306.24446289 348.90291992 -306.14501953 349.78662109 C-300.05966058 401.07750368 -277.85835284 451.36767065 -246.4375 492.1875 C-245.73882812 493.10015625 -245.04015625 494.0128125 -244.3203125 494.953125 C-240.05856195 500.39584257 -235.49183078 505.5152392 -230.80859375 510.59765625 C-228.80786826 512.78296267 -226.86273048 514.99861283 -224.9375 517.25 C-218.35469165 524.80861288 -211.129593 531.76917803 -203.4375 538.1875 C-202.89383789 538.64495605 -202.35017578 539.10241211 -201.79003906 539.57373047 C-180.06472239 557.7970043 -155.69938115 574.2354928 -129.4375 585.1875 C-127.98785292 585.80889754 -126.53866089 586.43135736 -125.08984375 587.0546875 C-107.17442965 594.70998922 -89.31771074 600.38429768 -70.4375 605.1875 C-69.61685059 605.40325684 -68.79620117 605.61901367 -67.95068359 605.84130859 C-40.97315802 612.84822694 -12.12562214 612.83185316 15.5625 612.1875 C16.56506836 612.16671387 17.56763672 612.14592773 18.60058594 612.12451172 C47.1102533 611.43747047 75.70335515 605.68453096 102.5625 596.1875 C103.36751953 595.90712891 104.17253906 595.62675781 105.00195312 595.33789062 C137.83016292 583.78297296 168.41090221 566.93041297 195.5625 545.1875 C196.48160156 544.46175781 197.40070313 543.73601563 198.34765625 542.98828125 C213.79896472 530.60500238 228.33854759 516.77777321 240.5625 501.1875 C241.43244335 500.10714556 242.3035881 499.0277577 243.17578125 497.94921875 C254.27704252 484.14192607 263.79732922 469.57070837 272.5625 454.1875 C273.32417388 452.85544309 274.08589023 451.52341047 274.84765625 450.19140625 C275.41355469 449.20011719 275.97945312 448.20882813 276.5625 447.1875 C277.5525 447.5175 278.5425 447.8475 279.5625 448.1875 C264.11045718 482.02551781 236.93580331 515.35966687 208.5625 539.1875 C207.78777344 539.85007812 207.01304687 540.51265625 206.21484375 541.1953125 C203.37050506 543.57805063 200.47719309 545.89205761 197.5625 548.1875 C196.55413086 548.98800781 196.55413086 548.98800781 195.52539062 549.8046875 C177.92329854 563.68889686 158.90887143 575.8159855 138.54541016 585.26171875 C136.41800885 586.25496004 134.30967059 587.28377571 132.19921875 588.3125 C91.24280695 607.89364701 45.74988461 616.43782246 0.5625 616.375 C-0.65172134 616.37409363 -0.65172134 616.37409363 -1.89047241 616.37316895 C-15.15703761 616.34641032 -28.26980022 615.93215423 -41.4375 614.1875 C-42.37706543 614.06391113 -43.31663086 613.94032227 -44.28466797 613.81298828 C-107.72220727 605.09178016 -171.82078873 576.30785642 -216.7421875 529.8828125 C-218.59385964 527.97428496 -218.59385964 527.97428496 -221.5 525.6875 C-224.45508973 523.17253002 -226.83639277 520.54287028 -229.33984375 517.59375 C-231.36707427 515.26828631 -233.47245948 513.03310629 -235.59960938 510.79931641 C-247.03084496 498.72040838 -256.45862232 485.14775676 -265.4375 471.1875 C-266.13617188 470.10984375 -266.83484375 469.0321875 -267.5546875 467.921875 C-272.395313 460.27481682 -276.52420135 452.39317765 -280.44189453 444.24804688 C-281.41410085 442.23592786 -282.40654226 440.23490005 -283.40234375 438.234375 C-318.60680844 366.61240135 -320.97896331 282.8262349 -295.64941406 207.77514648 C-278.46307413 157.84006075 -245.98333191 110.2885469 -205.4375 76.1875 C-204.89480469 75.73101074 -204.35210937 75.27452148 -203.79296875 74.80419922 C-158.72174242 37.07996883 -105.44690378 12.18315353 -47.25 3.375 C-46.21027039 3.21701935 -46.21027039 3.21701935 -45.14953613 3.05584717 C-30.065015 0.79267613 -15.22816593 -0.02028369 0 0 Z " fill="#000E4C" transform="translate(511.4375,194.8125)"/>
<path d="M0 0 C0.99 0 1.98 0 3 0 C7.33533615 21.83759932 10.2182871 43.19303427 10.1875 65.5 C10.18722809 66.2456723 10.18695618 66.9913446 10.18667603 67.75961304 C10.16632074 79.94754134 9.57370331 91.90538819 8 104 C7.80300258 105.68615323 7.60639572 107.37235214 7.41015625 109.05859375 C4.01407854 136.69221682 -3.61195262 185.61195262 -24 206 C-24.79450193 203.69388077 -25.11936834 202.39143512 -24.3984375 200.02734375 C-24.06070313 199.33769531 -23.72296875 198.64804687 -23.375 197.9375 C-23.00133301 197.15028564 -22.62766602 196.36307129 -22.24267578 195.55200195 C-21.83259277 194.70984131 -21.42250977 193.86768066 -21 193 C-16.25316794 182.88811352 -12.50936341 172.59343937 -9 162 C-8.75016357 161.26587891 -8.50032715 160.53175781 -8.24291992 159.77539062 C-3.75598323 146.54829029 -0.16233247 133.07277309 2.25 119.3125 C2.40073975 118.46091309 2.55147949 117.60932617 2.70678711 116.73193359 C5.39977144 100.47703777 6.37608451 84.3340429 6.3125 67.875 C6.31134186 66.93899963 6.31018372 66.00299927 6.30899048 65.03863525 C6.27272263 50.1637502 5.51599452 35.68789193 3 21 C2.85594727 20.14229004 2.71189453 19.28458008 2.56347656 18.40087891 C1.93017988 14.66931104 1.26725548 10.94690852 0.55078125 7.23046875 C0 4 0 4 0 0 Z " fill="#011450" transform="translate(815,436)"/>
<path d="M0 0 C0.33 0 0.66 0 1 0 C1 12.54 1 25.08 1 38 C0.67 38 0.34 38 0 38 C-0.33 31.07 -0.66 24.14 -1 17 C-1.66 17 -2.32 17 -3 17 C-2.36934845 11.2190275 -1.34844868 5.6556294 0 0 Z " fill="#536E9E" transform="translate(385,474)"/>
<path d="M0 0 C0.99 0.33 1.98 0.66 3 1 C2.85691406 1.83789062 2.71382812 2.67578125 2.56640625 3.5390625 C1.97619612 7.1454499 1.44952065 10.75672076 0.9375 14.375 C0.76089844 15.62023437 0.58429688 16.86546875 0.40234375 18.1484375 C0.26957031 19.08945312 0.13679687 20.03046875 0 21 C-1.51171875 19.79296875 -1.51171875 19.79296875 -3 18 C-3.14453125 15.80078125 -3.14453125 15.80078125 -2.8125 13.3125 C-2.69648438 12.43464844 -2.58046875 11.55679687 -2.4609375 10.65234375 C-1.83181516 7.03222451 -0.98340054 3.54024194 0 0 Z " fill="#031957" transform="translate(207,434)"/>
<path d="M0 0 C2 3 2 3 1.625 5.1875 C1.41875 5.785625 1.2125 6.38375 1 7 C0.34 7 -0.32 7 -1 7 C-1.103125 7.639375 -1.20625 8.27875 -1.3125 8.9375 C-2.23903073 13.06477326 -3.61660629 17.00642949 -5 21 C-7 18 -7 18 -6.81640625 15.2109375 C-5.92377284 11.70019747 -4.61285164 8.83312015 -2.9375 5.625 C-2.38964844 4.56539063 -1.84179688 3.50578125 -1.27734375 2.4140625 C-0.85582031 1.61742187 -0.43429688 0.82078125 0 0 Z " fill="#021556" transform="translate(228,375)"/>
<path d="M0 0 C1.67641098 4.09086452 0.2409319 7.71511018 -0.9375 11.75 C-1.13279297 12.44738281 -1.32808594 13.14476562 -1.52929688 13.86328125 C-2.0108246 15.57798973 -2.50425157 17.28934877 -3 19 C-3.66 18.67 -4.32 18.34 -5 18 C-5.33 18.66 -5.66 19.32 -6 20 C-6.66 20 -7.32 20 -8 20 C-6.54884678 15.42111848 -4.79418096 11.02350565 -2.875 6.625 C-2.59785156 5.98433594 -2.32070313 5.34367187 -2.03515625 4.68359375 C-1.35899615 3.12143075 -0.67981293 1.56057685 0 0 Z " fill="#49608E" transform="translate(486,473)"/>
<path d="M0 0 C2.13604308 3.20406462 2.24208908 3.99600747 2.1953125 7.66796875 C2.18886719 8.56064453 2.18242187 9.45332031 2.17578125 10.37304688 C2.15902344 11.30181641 2.14226562 12.23058594 2.125 13.1875 C2.11597656 14.12787109 2.10695312 15.06824219 2.09765625 16.03710938 C2.07409056 18.35832968 2.04119116 20.67903644 2 23 C1.67 22.01 1.34 21.02 1 20 C0.34 20 -0.32 20 -1 20 C-0.67 13.4 -0.34 6.8 0 0 Z " fill="#010845" transform="translate(201,514)"/>
<path d="M0 0 C1.485 0.99 1.485 0.99 3 2 C3.38411275 4.609621 3.60293197 7.0058074 3.6875 9.625 C3.72166016 10.33140625 3.75582031 11.0378125 3.79101562 11.765625 C3.87351308 13.50985688 3.93843335 15.25490395 4 17 C3.01 17.66 2.02 18.32 1 19 C-0.15316726 12.65758005 -0.09507063 6.43311296 0 0 Z " fill="#000440" transform="translate(821,470)"/>
<path d="M0 0 C1.89685547 0.05220703 1.89685547 0.05220703 3.83203125 0.10546875 C5.74048828 0.14607422 5.74048828 0.14607422 7.6875 0.1875 C9.15123047 0.23970703 9.15123047 0.23970703 10.64453125 0.29296875 C10.64453125 0.62296875 10.64453125 0.95296875 10.64453125 1.29296875 C13.11953125 1.78796875 13.11953125 1.78796875 15.64453125 2.29296875 C15.64453125 2.62296875 15.64453125 2.95296875 15.64453125 3.29296875 C8.38453125 3.29296875 1.12453125 3.29296875 -6.35546875 3.29296875 C-3.35546875 0.29296875 -3.35546875 0.29296875 0 0 Z " fill="#002055" transform="translate(507.35546875,807.70703125)"/>
<path d="M0 0 C5.6143991 1.56448671 10.86810338 3.16395187 16 6 C14.3203125 7.1015625 14.3203125 7.1015625 12 8 C9.4921875 7.4609375 9.4921875 7.4609375 6.875 6.375 C6.00617188 6.03210938 5.13734375 5.68921875 4.2421875 5.3359375 C1.71062735 3.82758633 1.0207792 2.71825471 0 0 Z " fill="#000841" transform="translate(386,783)"/>
<path d="M0 0 C0.33 0 0.66 0 1 0 C1.21824777 6.0018137 0.5056904 11.19233704 -1 17 C-1.33 17 -1.66 17 -2 17 C-2.75612577 11.76528314 -3.2063366 7.22745859 -2 2 C-1.34 2 -0.68 2 0 2 C0 1.34 0 0.68 0 0 Z " fill="#000442" transform="translate(205,450)"/>
<path d="M0 0 C0.33 4.62 0.66 9.24 1 14 C0.01 14 -0.98 14 -2 14 C-2.33 9.71 -2.66 5.42 -3 1 C-1 0 -1 0 0 0 Z " fill="#041D5B" transform="translate(204,533)"/>
<path d="M0 0 C0.99 0.33 1.98 0.66 3 1 C3.66 4.96 4.32 8.92 5 13 C4.01 13.33 3.02 13.66 2 14 C0.66416101 9.15758367 -0.25328119 5.06562383 0 0 Z " fill="#061B5C" transform="translate(206,564)"/>
<path d="M0 0 C0.99 0 1.98 0 3 0 C3.55808089 1.43120744 4.09596462 2.87030355 4.625 4.3125 C4.92664063 5.11300781 5.22828125 5.91351563 5.5390625 6.73828125 C5.69117188 7.48464844 5.84328125 8.23101562 6 9 C5.01 10.485 5.01 10.485 4 12 C3.32645501 10.56570999 2.66140299 9.12742943 2 7.6875 C1.62875 6.88699219 1.2575 6.08648437 0.875 5.26171875 C0 3 0 3 0 0 Z " fill="#000E48" transform="translate(801,391)"/>
<path d="M0 0 C0.33 0 0.66 0 1 0 C0.67 5.94 0.34 11.88 0 18 C-0.33 18 -0.66 18 -1 18 C-1.89497618 12.74201496 -2.64027162 7.3283621 -2 2 C-1.34 1.34 -0.68 0.68 0 0 Z " fill="#000B50" transform="translate(824,487)"/>
<path d="M0 0 C0.33 0 0.66 0 1 0 C1.83343135 3.22954649 2.14284811 6.36579132 2.25 9.6875 C2.27578125 10.45449219 2.3015625 11.22148437 2.328125 12.01171875 C2.16570313 12.99591797 2.16570313 12.99591797 2 14 C1.01 14.66 0.02 15.32 -1 16 C-1.09688221 10.55306686 -1.12862175 5.36095333 0 0 Z " fill="#05225D" transform="translate(821,460)"/>
<path d="M0 0 C0.66 0.99 1.32 1.98 2 3 C0.68 5.64 -0.64 8.28 -2 11 C-2.66 10.67 -3.32 10.34 -4 10 C-3.43454163 6.04179141 -2.19097652 3.3340947 0 0 Z " fill="#011043" transform="translate(794,631)"/>
<path d="M0 0 C2 2 2 2 2.3125 4.8125 C1.96840628 8.32225593 1.01272399 10.14864101 -1 13 C-2.07310858 9.72814447 -1.89263102 7.57052408 -1.0625 4.25 C-0.86785156 3.45078125 -0.67320312 2.6515625 -0.47265625 1.828125 C-0.31667969 1.22484375 -0.16070313 0.6215625 0 0 Z " fill="#495F8D" transform="translate(618,465)"/>
<path d="M0 0 C0.33 0 0.66 0 1 0 C1.95261487 4.76307437 2.08333357 9.1666528 2 14 C1.01 13.67 0.02 13.34 -1 13 C-1.07654536 8.48382401 -1.10228696 4.40914783 0 0 Z " fill="#03215C" transform="translate(202,461)"/>
<path d="M0 0 C3.63 0 7.26 0 11 0 C11 0.66 11 1.32 11 2 C6.91556885 3.53166168 3.20544343 2.63081652 -1 2 C-0.67 1.34 -0.34 0.68 0 0 Z " fill="#00033A" transform="translate(471,807)"/>
<path d="M0 0 C-2.58926331 2.58926331 -4.02705279 2.37398043 -7.625 2.625 C-8.62789062 2.69976563 -9.63078125 2.77453125 -10.6640625 2.8515625 C-11.82035156 2.92503906 -11.82035156 2.92503906 -13 3 C-9.43237262 -2.35144107 -5.66956741 -0.83649355 0 0 Z " fill="#010D4E" transform="translate(579,803)"/>
<path d="M0 0 C0.66 0 1.32 0 2 0 C2.83796731 4.65537393 3.0161692 8.37078475 2 13 C0.21590198 9.93753253 -0.22880021 7.77920727 -0.125 4.25 C-0.10695313 3.45078125 -0.08890625 2.6515625 -0.0703125 1.828125 C-0.04710937 1.22484375 -0.02390625 0.6215625 0 0 Z " fill="#000646" transform="translate(819,453)"/>
<path d="M0 0 C2 2 2 2 2.125 5.625 C2.08375 6.73875 2.0425 7.8525 2 9 C1.01 9.495 1.01 9.495 0 10 C-0.66 9.34 -1.32 8.68 -2 8 C-1.7578125 6.0546875 -1.7578125 6.0546875 -1.125 3.875 C-0.92132813 3.15054687 -0.71765625 2.42609375 -0.5078125 1.6796875 C-0.34023437 1.12539063 -0.17265625 0.57109375 0 0 Z " fill="#010946" transform="translate(209,425)"/>
<path d="M0 0 C6.93 0.495 6.93 0.495 14 1 C14 1.33 14 1.66 14 2 C9.05 2.33 4.1 2.66 -1 3 C-0.67 2.01 -0.34 1.02 0 0 Z " fill="#031A56" transform="translate(466,805)"/>
<path d="M0 0 C1.051875 -0.02126953 1.051875 -0.02126953 2.125 -0.04296875 C4 0.1875 4 0.1875 6 2.1875 C4.37675914 2.40912329 2.751279 2.61439803 1.125 2.8125 C-0.23238281 2.98652344 -0.23238281 2.98652344 -1.6171875 3.1640625 C-2.40351562 3.17179688 -3.18984375 3.17953125 -4 3.1875 C-4.66 2.5275 -5.32 1.8675 -6 1.1875 C-3.77109005 0.07304502 -2.46944894 0.02269714 0 0 Z " fill="#00033C" transform="translate(547,806.8125)"/>
<path d="M0 0 C0.66 0 1.32 0 2 0 C2 2.31 2 4.62 2 7 C1.34 6.67 0.68 6.34 0 6 C-0.33 6.66 -0.66 7.32 -1 8 C-1.66 8 -2.32 8 -3 8 C-1.125 2.25 -1.125 2.25 0 0 Z " fill="#3C598A" transform="translate(481,485)"/>
<path d="M0 0 C0.66 0.33 1.32 0.66 2 1 C0.60135422 4.49661445 -0.6014281 5.50063004 -4 7 C-5.35113205 7.97581759 -6.68946944 8.97029741 -8 10 C-6.34908222 5.70761377 -3.26245434 3.1206085 0 0 Z " fill="#000A5E" transform="translate(294,282)"/>
<path d="M0 0 C1.32 0.33 2.64 0.66 4 1 C2.02 2.98 0.04 4.96 -2 7 C-2.66 6.67 -3.32 6.34 -4 6 C-1.125 1.125 -1.125 1.125 0 0 Z " fill="#00063A" transform="translate(298,278)"/>
<path d="M0 0 C0.33 0 0.66 0 1 0 C1 2.97 1 5.94 1 9 C0.01 9.33 -0.98 9.66 -2 10 C-1.125 2.25 -1.125 2.25 0 0 Z " fill="#3A5886" transform="translate(384,481)"/>
<path d="M0 0 C-0.99 0.33 -1.98 0.66 -3 1 C-3 1.66 -3 2.32 -3 3 C-6.3 2.67 -9.6 2.34 -13 2 C-13 1.67 -13 1.34 -13 1 C-8.60563789 0.14256349 -4.47427924 -0.08948558 0 0 Z " fill="#001353" transform="translate(480,197)"/>
<path d="M0 0 C-0.25 1.875 -0.25 1.875 -1 4 C-3.0625 5.25 -3.0625 5.25 -5 6 C-5 3 -5 3 -3.625 1.3125 C-2 0 -2 0 0 0 Z " fill="#000D58" transform="translate(734,718)"/>
<path d="M0 0 C0.99 0.66 1.98 1.32 3 2 C-0.465 4.97 -0.465 4.97 -4 8 C-3.07377893 4.29511572 -2.32789515 2.83395931 0 0 Z " fill="#001958" transform="translate(744,705)"/>
<path d="M0 0 C0.99 0.33 1.98 0.66 3 1 C2.67 2.98 2.34 4.96 2 7 C1.01 7 0.02 7 -1 7 C-0.67 4.69 -0.34 2.38 0 0 Z " fill="#04215F" transform="translate(817,557)"/>
<path d="M0 0 C0.33 0.66 0.66 1.32 1 2 C1.66 2 2.32 2 3 2 C3.33 3.65 3.66 5.3 4 7 C3.34 7 2.68 7 2 7 C1.67 7.66 1.34 8.32 1 9 C0.67 6.03 0.34 3.06 0 0 Z " fill="#000E48" transform="translate(813,426)"/>
<path d="M0 0 C0 0.66 0 1.32 0 2 C-3.3 1.67 -6.6 1.34 -10 1 C-10 0.67 -10 0.34 -10 0 C-6.33694766 -0.74926071 -3.57644848 -1.2380014 0 0 Z " fill="#02144E" transform="translate(557,806)"/>
<path d="M0 0 C6.75 0.75 6.75 0.75 9 3 C6.75 3.75 6.75 3.75 4 4 C1.6875 2.0625 1.6875 2.0625 0 0 Z " fill="#000440" transform="translate(418,795)"/>
<path d="" fill="#0000FF" transform="translate(0,0)"/>
<path d="" fill="#FFFFFF" transform="translate(0,0)"/>
<path d="" fill="#FFFFFF" transform="translate(0,0)"/>
</svg>
