<?xml version="1.0" encoding="UTF-8"?>
<svg version="1.1" xmlns="http://www.w3.org/2000/svg" width="1024" height="1024">
<path d="M0 0 C337.92 0 675.84 0 1024 0 C1024 337.92 1024 675.84 1024 1024 C686.08 1024 348.16 1024 0 1024 C0 686.08 0 348.16 0 0 Z " fill="#EDEEEE" transform="translate(0,0)"/>
<path d="M0 0 C2.25523663 0.12737274 2.25523663 0.12737274 4.25523663 2.12737274 C4.56461163 3.09674774 4.87398663 4.06612274 5.19273663 5.06487274 C6.2738478 8.18101673 6.98796451 8.93251964 9.25523663 11.12737274 C12.05419712 14.97594342 14.27628944 18.8709561 15.81773663 23.37737274 C17.00362547 26.83396919 18.56938179 28.61479886 21.25523663 31.12737274 C21.93656114 32.78810124 22.60265789 34.45513974 23.25523663 36.12737274 C23.91523663 36.95237274 24.57523663 37.77737274 25.25523663 38.62737274 C27.25523663 41.12737274 27.25523663 41.12737274 28.07164288 43.30315399 C29.67152755 47.12070059 31.90492347 50.37700617 34.19273663 53.81487274 C38.7905992 60.81268898 43.22077225 67.89474535 47.54991436 75.06169891 C49.47953371 78.24984475 51.42084465 81.41005039 53.51304913 84.49456024 C55.25523663 87.12737274 55.25523663 87.12737274 56.19273663 89.56487274 C57.41159264 92.50446665 59.06134178 94.73428029 60.94664288 97.27971649 C62.94924394 100.10726964 64.58393052 103.09426167 66.25523663 106.12737274 C69.37630488 105.43881543 69.37630488 105.43881543 70.61461163 102.97502899 C71.07351788 102.05592743 71.53242413 101.13682587 72.00523663 100.18987274 C74.05855763 96.25136869 76.22104507 92.60606015 78.81773663 89.00237274 C81.42415402 85.37605289 83.6407316 81.72788706 85.75133038 77.79924774 C88.96260572 72.09402089 92.53386043 66.59742501 96.03160381 61.06487274 C97.15483699 59.28634551 98.27242241 57.5044271 99.38804913 55.72112274 C100.004221 54.74143524 100.62039288 53.76174774 101.25523663 52.75237274 C102.05961163 51.47233368 102.05961163 51.47233368 102.88023663 50.16643524 C104.25523663 48.12737274 104.25523663 48.12737274 106.25523663 46.12737274 C106.96234341 44.47745692 107.63467652 42.81175018 108.25523663 41.12737274 C108.91523663 41.12737274 109.57523663 41.12737274 110.25523663 41.12737274 C110.42023663 40.19924774 110.58523663 39.27112274 110.75523663 38.31487274 C112.11950123 33.43120091 115.25295505 29.84469431 118.27867413 25.86174774 C120.75948951 22.4297897 122.51196066 18.97710718 124.25523663 15.12737274 C124.91523663 15.12737274 125.57523663 15.12737274 126.25523663 15.12737274 C126.510471 14.23985321 126.510471 14.23985321 126.77086163 13.33440399 C127.01320538 12.54420868 127.25554913 11.75401337 127.50523663 10.93987274 C127.73726788 10.16256805 127.96929913 9.38526337 128.20836163 8.58440399 C129.51723241 5.51246473 130.91223022 3.52221981 133.25523663 1.12737274 C136.16812038 0.5121336 136.16812038 0.5121336 139.62065411 0.52610016 C141.58519291 0.51579018 141.58519291 0.51579018 143.58941936 0.50527191 C145.03890324 0.52296671 146.48838133 0.54114075 147.93785381 0.55974579 C149.46551752 0.56115629 150.99318463 0.56036425 152.52084637 0.55753326 C156.66746815 0.55609774 160.81336785 0.58550894 164.9598217 0.62040305 C169.29330256 0.65164416 173.62679969 0.65459551 177.96037579 0.66053009 C186.16628199 0.67607518 194.37185541 0.71711253 202.57761502 0.76727754 C211.91968372 0.8231504 221.26176825 0.8506523 230.60396242 0.87575471 C249.82128086 0.928028 269.03814307 1.01972787 288.25523663 1.12737274 C288.25523663 21.25737274 288.25523663 41.38737274 288.25523663 62.12737274 C292.52519433 59.56539812 295.20138885 57.4227568 298.63023663 53.93987274 C299.524846 53.03881805 300.41945538 52.13776337 301.34117413 51.20940399 C306.05637985 46.28509282 310.53633457 41.22874936 314.50427532 35.67777252 C325.86592524 19.84949471 339.78718194 2.16259522 360.00088775 -1.3124007 C377.81676732 -3.86809907 396.18458715 -2.69461501 414.0816313 -1.68167269 C422.07863007 -1.23724722 430.07728959 -1.02928036 438.08365142 -0.83524787 C454.48863815 -0.43266658 470.86869848 0.24827288 487.25523663 1.12737274 C486.17139705 4.37889146 485.60416578 4.89503373 483.04649639 6.96941376 C476.54198153 12.49481249 470.62019828 18.61864935 464.59508038 24.65471649 C463.2782145 25.97090735 461.96120032 27.28694984 460.64404583 28.60285187 C457.89489589 31.35053418 455.14754543 34.09999964 452.40147686 36.85076141 C448.89933659 40.35859837 445.39272512 43.86192582 441.88474464 47.36392117 C439.16758807 50.0774468 436.45283919 52.79337119 433.73878956 55.51000404 C432.44746418 56.8019917 431.1554089 58.0932503 429.8625803 59.38373375 C424.01459476 65.22343496 418.20309979 71.02755768 412.83899212 77.32123566 C409.78324831 80.80604897 406.45656904 84.02718902 403.16148663 87.28362274 C402.03595379 88.40347565 402.03595379 88.40347565 400.88768291 89.54595184 C397.71307158 92.70438387 394.53247747 95.85676553 391.35240459 99.00969696 C389.01583302 101.3280702 386.68235663 103.64952794 384.34898663 105.97112274 C383.64149273 106.6703183 382.93399883 107.36951385 382.20506573 108.08989716 C378.23818914 112.03743578 374.45774602 116.08293853 370.81817913 120.33490753 C368.31758256 123.20272407 365.64243125 125.88586543 362.94273663 128.56487274 C362.41873272 129.09274384 361.89472881 129.62061493 361.354846 130.16448212 C357.50897697 134.00050257 357.50897697 134.00050257 355.25523663 135.12737274 C353.97595685 137.266579 353.97595685 137.266579 354.25523663 140.12737274 C356.19773461 142.94334609 358.65931508 145.20175844 361.13023663 147.55315399 C361.84751934 148.25957535 362.56480206 148.9659967 363.30382061 149.69382477 C365.60726362 151.95701995 367.93026843 154.19881498 370.25523663 156.43987274 C372.54733725 158.67427249 374.83519256 160.91290784 377.12095928 163.15378571 C378.54442322 164.5465296 379.97222721 165.93485702 381.40513897 167.31787872 C385.37252623 171.16899441 389.10222892 175.13271336 392.68260479 179.34726715 C395.17173763 182.16478564 397.94417869 184.63777399 400.75523663 187.12737274 C404.23527163 190.20944754 407.49113093 193.32891441 410.51399517 196.86728668 C413.99427608 200.87426254 417.64320442 204.6633408 421.39634991 208.41374969 C422.07209057 209.09284897 422.74783123 209.77194824 423.44404888 210.47162628 C425.65193777 212.68892299 427.86349176 214.90251642 430.07554913 217.11565399 C431.62305609 218.66637818 433.17048938 220.21717589 434.71785259 221.76804352 C437.94875656 225.00491149 441.18169664 228.23973003 444.41588116 231.47332001 C448.55800631 235.61534314 452.69318485 239.76422796 456.82666492 243.91487598 C460.01455145 247.11387593 463.20696741 250.30832575 466.40067959 253.50150871 C467.92769664 255.02970478 469.45309478 256.55952031 470.97682858 258.09099007 C473.10413817 260.22809571 475.23768843 262.35877419 477.37291241 264.48796844 C477.99849041 265.11916595 478.62406841 265.75036346 479.26860332 266.40068817 C482.40606103 269.51567882 485.33076001 272.00834628 489.25523663 274.12737274 C491.06773663 275.62737274 491.06773663 275.62737274 492.25523663 277.12737274 C492.25523663 278.11737274 492.25523663 279.10737274 492.25523663 280.12737274 C474.18285485 280.5496635 456.11176916 280.86613077 438.03550434 281.05999184 C429.64026454 281.15243944 421.24810605 281.27822447 412.854846 281.4852829 C405.5307003 281.66587905 398.20878672 281.78108831 390.88247621 281.82096565 C387.00916956 281.84424936 383.14224182 281.89806858 379.27100277 282.03051376 C352.67921202 282.90496578 352.67921202 282.90496578 342.95249271 273.95502281 C340.08879399 270.91661225 337.47211653 267.78190192 334.98089504 264.43230057 C330.28977077 258.16645864 324.84040666 252.59053664 319.25523663 247.12737274 C317.58856996 245.46070608 315.92190329 243.79403941 314.25523663 242.12737274 C313.57461163 241.4583493 312.89398663 240.78932587 312.19273663 240.10002899 C307.92929006 235.8869948 303.86125106 231.59742217 299.95445538 227.05315399 C295.17896765 221.38367971 295.17896765 221.38367971 289.25523663 217.12737274 C289.25523663 237.91737274 289.25523663 258.70737274 289.25523663 280.12737274 C232.82523663 280.12737274 176.39523663 280.12737274 118.25523663 280.12737274 C118.25523663 260.98737274 118.25523663 241.84737274 118.25523663 222.12737274 C113.21329157 226.99764264 113.21329157 226.99764264 110.31773663 233.12737274 C109.25523663 236.12737274 109.25523663 236.12737274 107.41929913 237.93596649 C104.91078587 240.47617577 103.33665152 243.0933124 101.56773663 246.18987274 C100.96574444 247.2327243 100.36375225 248.27557587 99.74351788 249.35002899 C98.17237046 252.09371205 98.17237046 252.09371205 97.25523663 255.12737274 C77.78523663 255.12737274 58.31523663 255.12737274 38.25523663 255.12737274 C37.26523663 252.81737274 36.27523663 250.50737274 35.25523663 248.12737274 C34.07876644 246.32110053 32.85204466 244.54613074 31.56773663 242.81487274 C28.25523663 238.33648247 28.25523663 238.33648247 28.25523663 236.12737274 C27.26523663 235.79737274 26.27523663 235.46737274 25.25523663 235.12737274 C24.55579009 233.47413548 23.85970055 231.81549071 23.29429913 230.11174774 C21.97253388 227.34731096 21.97253388 227.34731096 17.25523663 223.12737274 C17.25523663 241.93737274 17.25523663 260.74737274 17.25523663 280.12737274 C-14.42476337 280.12737274 -46.10476337 280.12737274 -78.74476337 280.12737274 C-79.79966938 275.90774873 -79.76522175 272.22806067 -79.60258198 267.93637848 C-79.56258802 266.68620854 -79.56258802 266.68620854 -79.52178609 265.41078264 C-79.46312264 263.58264412 -79.40211896 261.7545796 -79.33909702 259.92658615 C-79.16482103 254.83705634 -79.0111855 249.74690877 -78.85770893 244.65671539 C-78.8247243 243.56946368 -78.79173968 242.48221196 -78.75775552 241.36201322 C-78.30731674 226.13685326 -78.05856425 210.9072398 -77.80622005 195.67772198 C-77.59533541 183.30363419 -77.31162365 170.93919536 -76.85755634 158.57146454 C-71.36747477 100.25089818 -71.36747477 100.25089818 -90.89515209 48.01071262 C-97.82573512 40.75480999 -105.69945093 34.86203299 -114.40769672 29.91468048 C-119.18493959 27.11257078 -122.31231535 23.40444506 -125.74476337 19.12737274 C-127.19234882 17.61976509 -128.65646144 16.12757504 -130.14710712 14.66252899 C-130.89154072 13.92582977 -131.63597431 13.18913055 -132.4029665 12.43010712 C-133.15513447 11.69082977 -133.90730244 10.95155243 -134.68226337 10.18987274 C-136.21445066 8.68303181 -137.74452856 7.17404187 -139.27210712 5.66252899 C-139.93976093 5.00647675 -140.60741474 4.3504245 -141.29530048 3.67449188 C-142.74476337 2.12737274 -142.74476337 2.12737274 -142.74476337 1.12737274 C-124.57738523 0.9967715 -106.41000564 0.86637468 -88.24262428 0.73622131 C-79.80722008 0.67578427 -71.37181636 0.61528029 -62.93641376 0.55461884 C-55.58421666 0.5017472 -48.23201866 0.44900106 -40.87981957 0.3964057 C-36.98682667 0.36855204 -33.09383423 0.3406355 -29.20084286 0.31256866 C-25.53606429 0.28614913 -21.87128456 0.25989751 -18.20650387 0.23377419 C-16.22148396 0.21958097 -14.23646532 0.20521016 -12.25144672 0.19083405 C-11.06659184 0.18241989 -9.88173695 0.17400574 -8.66097736 0.16533661 C-7.63317819 0.15796227 -6.60537901 0.15058792 -5.5464344 0.14299011 C-3.69703738 0.13268101 -1.84743761 0.08573169 0 0 Z " fill="#2765A2" transform="translate(330.7447633743286,383.8726272583008)"/>
<path d="M0 0 C21.45 0 42.9 0 65 0 C65 26.73 65 53.46 65 81 C71.90530134 74.97237031 71.90530134 74.97237031 77.7734375 68.28515625 C78.17820312 67.86105469 78.58296875 67.43695313 79 67 C79.66 67 80.32 67 81 67 C81.26425781 66.39671875 81.52851562 65.7934375 81.80078125 65.171875 C83.05755074 62.8957713 84.15440162 61.83181567 86.1875 60.25 C92.00965688 55.45742443 96.51907877 49.82236898 100.73754883 43.59375 C105.40275756 36.74714572 110.4258786 30.29051965 115.8125 24 C116.30086712 23.42913288 116.78923424 22.85826576 117.29240036 22.27009964 C130.60563525 7.001325 143.94164721 -1.23457209 164.38215637 -2.88418579 C190.8739918 -4.44188872 217.62369514 -2.56492843 244 0 C242.61314913 3.1275405 241.00755292 5.23312176 238.5793457 7.63183594 C237.53234245 8.67377106 237.53234245 8.67377106 236.46418762 9.73675537 C235.70901352 10.47846985 234.95383942 11.22018433 234.17578125 11.984375 C233.00634224 13.14601166 233.00634224 13.14601166 231.8132782 14.33111572 C229.31771638 16.80886979 226.81559722 19.27986043 224.3125 21.75 C221.82808268 24.20666521 219.34518253 26.66481455 216.86528015 29.1260376 C215.32318699 30.65602399 213.77842961 32.18333153 212.23054504 33.7074585 C208.13993829 37.7606363 204.24733013 41.91312502 200.49006653 46.27716064 C197.70453852 49.49783381 194.69527273 52.48899658 191.6875 55.5 C191.06810547 56.13164062 190.44871094 56.76328125 189.81054688 57.4140625 C189.21693359 58.00960937 188.62332031 58.60515625 188.01171875 59.21875 C187.21447388 60.0221582 187.21447388 60.0221582 186.40112305 60.84179688 C185 62 185 62 183 62 C182.73585297 62.58979141 182.47170593 63.17958282 182.19955444 63.7872467 C180.95357454 66.08563853 179.6623653 67.57310005 177.80712891 69.40405273 C177.15950592 70.04829697 176.51188293 70.6925412 175.84463501 71.35630798 C175.14567108 72.04181229 174.44670715 72.72731659 173.7265625 73.43359375 C173.00640961 74.14854507 172.28625671 74.8634964 171.54428101 75.60011292 C169.24255111 77.88404231 166.93425744 80.16118386 164.625 82.4375 C162.32373853 84.71107893 160.02397102 86.98611821 157.72714233 89.26417542 C156.29862687 90.68050749 154.86744628 92.09415798 153.43325806 93.50474548 C150.66558587 96.24477632 148.07044406 98.91073909 145.65380859 101.97290039 C145.10805176 102.64184326 144.56229492 103.31078613 144 104 C143.34 104 142.68 104 142 104 C141.80148437 104.53882813 141.60296875 105.07765625 141.3984375 105.6328125 C139.0314938 109.6394267 135.35416838 112.36583742 131.875 115.40234375 C128.22506899 118.6606155 125.53887013 121.81023895 123 126 C123.66 126 124.32 126 125 126 C126.55078125 127.609375 126.55078125 127.609375 128.3125 129.75 C130.99943328 132.91535204 133.69146857 135.47506812 137 138 C138.67960269 139.65362945 140.34404346 141.32269159 142 143 C142.9784239 143.97990887 143.95761097 144.95905623 144.9375 145.9375 C154 155 154 155 156.31298828 157.31518555 C158.65535909 159.65564092 161.00202872 161.9916166 163.3510437 164.32539368 C165.60295071 166.56374023 167.85204381 168.80490615 170.10107422 171.04614258 C171.27920821 172.21925013 172.45823848 173.39145828 173.63818359 174.56274414 C175.36279295 176.2750727 177.08401742 177.9907453 178.8046875 179.70703125 C179.58004349 180.47464531 179.58004349 180.47464531 180.37106323 181.25776672 C183.11068269 183.9969755 185.71666837 186.80020001 188.24023438 189.74023438 C192.69925814 194.88622354 197.52557665 199.64994404 202.3515625 204.44921875 C203.33871159 205.43449666 204.32563562 206.4200001 205.31234741 207.40571594 C207.88917924 209.97876432 210.46899738 212.54879733 213.04949951 215.11816406 C215.67023545 217.7286457 218.2881272 220.34197616 220.90625 222.95507812 C225.5144007 227.5537106 230.12500515 232.14986779 234.73745728 236.7441864 C236.37998922 238.38183322 238.02077226 240.02123476 239.66049194 241.66169739 C241.10783028 243.10828998 242.55991694 244.55016984 244.01953125 245.984375 C244.61121094 246.56703125 245.20289063 247.1496875 245.8125 247.75 C246.41707031 248.34296875 247.02164063 248.9359375 247.64453125 249.546875 C249 251 249 251 249 252 C235.77835847 252.30202441 222.55754524 252.53260266 209.33314896 252.67355824 C203.191395 252.74123369 197.05201101 252.83292074 190.91162109 252.98071289 C184.97860423 253.12261008 179.04785707 253.19982424 173.11327362 253.23340416 C170.85646593 253.25731276 168.59977417 253.30400603 166.34394073 253.37449074 C147.75576991 253.93186264 147.75576991 253.93186264 142.08518982 249.24116516 C138.95457039 246.11600842 136.50005009 242.63921659 134 239 C132.87372833 237.7716504 131.71917587 236.5672069 130.51391602 235.41625977 C129.08362628 234.00418867 127.6535954 232.59184925 126.22703552 231.17601013 C124.67474973 229.63556106 123.11912207 228.09856615 121.5625 226.5625 C119.47744507 224.50432835 117.39596649 222.44262784 115.31640625 220.37890625 C114.41349854 219.4876001 113.51059082 218.59629395 112.58032227 217.67797852 C110.74839267 215.77671674 109.07129677 213.91294417 107.40942383 211.87646484 C105.41233098 209.49225693 103.51725886 207.56549046 101.1328125 205.59765625 C97.07284696 202.13004634 93.47314058 198.37522609 89.875 194.4375 C82.77343095 186.75976251 75.44042334 179.34793189 68 172 C67.01 171.01 66.02 170.02 65 169 C65 196.39 65 223.78 65 252 C43.55 252 22.1 252 0 252 C0 168.84 0 85.68 0 0 Z " fill="#2765A2" transform="translate(541,398)"/>
<path d="M0 0 C2.25523663 0.12737274 2.25523663 0.12737274 4.25523663 2.12737274 C4.56461163 3.09674774 4.87398663 4.06612274 5.19273663 5.06487274 C6.2738478 8.18101673 6.98796451 8.93251964 9.25523663 11.12737274 C12.05419712 14.97594342 14.27628944 18.8709561 15.81773663 23.37737274 C17.00362547 26.83396919 18.56938179 28.61479886 21.25523663 31.12737274 C21.93656114 32.78810124 22.60265789 34.45513974 23.25523663 36.12737274 C23.91523663 36.95237274 24.57523663 37.77737274 25.25523663 38.62737274 C27.25523663 41.12737274 27.25523663 41.12737274 28.07164288 43.30315399 C29.67152755 47.12070059 31.90492347 50.37700617 34.19273663 53.81487274 C38.7905992 60.81268898 43.22077225 67.89474535 47.54991436 75.06169891 C49.47953371 78.24984475 51.42084465 81.41005039 53.51304913 84.49456024 C55.25523663 87.12737274 55.25523663 87.12737274 56.19273663 89.56487274 C57.41159264 92.50446665 59.06134178 94.73428029 60.94664288 97.27971649 C62.94924394 100.10726964 64.58393052 103.09426167 66.25523663 106.12737274 C69.37630488 105.43881543 69.37630488 105.43881543 70.61461163 102.97502899 C71.07351788 102.05592743 71.53242413 101.13682587 72.00523663 100.18987274 C74.05855763 96.25136869 76.22104507 92.60606015 78.81773663 89.00237274 C81.42415402 85.37605289 83.6407316 81.72788706 85.75133038 77.79924774 C88.96260572 72.09402089 92.53386043 66.59742501 96.03160381 61.06487274 C97.15483699 59.28634551 98.27242241 57.5044271 99.38804913 55.72112274 C100.004221 54.74143524 100.62039288 53.76174774 101.25523663 52.75237274 C102.05961163 51.47233368 102.05961163 51.47233368 102.88023663 50.16643524 C104.25523663 48.12737274 104.25523663 48.12737274 106.25523663 46.12737274 C106.96234341 44.47745692 107.63467652 42.81175018 108.25523663 41.12737274 C108.91523663 41.12737274 109.57523663 41.12737274 110.25523663 41.12737274 C110.42023663 40.19924774 110.58523663 39.27112274 110.75523663 38.31487274 C112.11950123 33.43120091 115.25295505 29.84469431 118.27867413 25.86174774 C120.75948951 22.4297897 122.51196066 18.97710718 124.25523663 15.12737274 C124.91523663 15.12737274 125.57523663 15.12737274 126.25523663 15.12737274 C126.510471 14.23985321 126.510471 14.23985321 126.77086163 13.33440399 C127.01320538 12.54420868 127.25554913 11.75401337 127.50523663 10.93987274 C127.73726788 10.16256805 127.96929913 9.38526337 128.20836163 8.58440399 C129.51723241 5.51246473 130.91223022 3.52221981 133.25523663 1.12737274 C136.16812038 0.5121336 136.16812038 0.5121336 139.62065411 0.52610016 C141.58519291 0.51579018 141.58519291 0.51579018 143.58941936 0.50527191 C145.03890324 0.52296671 146.48838133 0.54114075 147.93785381 0.55974579 C149.46551752 0.56115629 150.99318463 0.56036425 152.52084637 0.55753326 C156.66746815 0.55609774 160.81336785 0.58550894 164.9598217 0.62040305 C169.29330256 0.65164416 173.62679969 0.65459551 177.96037579 0.66053009 C186.16628199 0.67607518 194.37185541 0.71711253 202.57761502 0.76727754 C211.91968372 0.8231504 221.26176825 0.8506523 230.60396242 0.87575471 C249.82128086 0.928028 269.03814307 1.01972787 288.25523663 1.12737274 C288.25523663 21.25737274 288.25523663 41.38737274 288.25523663 62.12737274 C292.52519433 59.56539812 295.20138885 57.4227568 298.63023663 53.93987274 C299.524846 53.03881805 300.41945538 52.13776337 301.34117413 51.20940399 C306.05637985 46.28509282 310.53633457 41.22874936 314.50427532 35.67777252 C325.86592524 19.84949471 339.78718194 2.16259522 360.00088775 -1.3124007 C377.81676732 -3.86809907 396.18458715 -2.69461501 414.0816313 -1.68167269 C422.07863007 -1.23724722 430.07728959 -1.02928036 438.08365142 -0.83524787 C454.48863815 -0.43266658 470.86869848 0.24827288 487.25523663 1.12737274 C486.17139705 4.37889146 485.60416578 4.89503373 483.04649639 6.96941376 C476.54198153 12.49481249 470.62019828 18.61864935 464.59508038 24.65471649 C463.2782145 25.97090735 461.96120032 27.28694984 460.64404583 28.60285187 C457.89489589 31.35053418 455.14754543 34.09999964 452.40147686 36.85076141 C448.89933659 40.35859837 445.39272512 43.86192582 441.88474464 47.36392117 C439.16758807 50.0774468 436.45283919 52.79337119 433.73878956 55.51000404 C432.44746418 56.8019917 431.1554089 58.0932503 429.8625803 59.38373375 C424.01459476 65.22343496 418.20309979 71.02755768 412.83899212 77.32123566 C409.78324831 80.80604897 406.45656904 84.02718902 403.16148663 87.28362274 C402.03595379 88.40347565 402.03595379 88.40347565 400.88768291 89.54595184 C397.71307158 92.70438387 394.53247747 95.85676553 391.35240459 99.00969696 C389.01583302 101.3280702 386.68235663 103.64952794 384.34898663 105.97112274 C383.64149273 106.6703183 382.93399883 107.36951385 382.20506573 108.08989716 C378.23818914 112.03743578 374.45774602 116.08293853 370.81817913 120.33490753 C368.31758256 123.20272407 365.64243125 125.88586543 362.94273663 128.56487274 C362.41873272 129.09274384 361.89472881 129.62061493 361.354846 130.16448212 C357.50897697 134.00050257 357.50897697 134.00050257 355.25523663 135.12737274 C353.97595685 137.266579 353.97595685 137.266579 354.25523663 140.12737274 C356.19773461 142.94334609 358.65931508 145.20175844 361.13023663 147.55315399 C361.84751934 148.25957535 362.56480206 148.9659967 363.30382061 149.69382477 C365.60726362 151.95701995 367.93026843 154.19881498 370.25523663 156.43987274 C372.54733725 158.67427249 374.83519256 160.91290784 377.12095928 163.15378571 C378.54442322 164.5465296 379.97222721 165.93485702 381.40513897 167.31787872 C385.37252623 171.16899441 389.10222892 175.13271336 392.68260479 179.34726715 C395.17173763 182.16478564 397.94417869 184.63777399 400.75523663 187.12737274 C404.23527163 190.20944754 407.49113093 193.32891441 410.51399517 196.86728668 C413.99427608 200.87426254 417.64320442 204.6633408 421.39634991 208.41374969 C422.07209057 209.09284897 422.74783123 209.77194824 423.44404888 210.47162628 C425.65193777 212.68892299 427.86349176 214.90251642 430.07554913 217.11565399 C431.62305609 218.66637818 433.17048938 220.21717589 434.71785259 221.76804352 C437.94875656 225.00491149 441.18169664 228.23973003 444.41588116 231.47332001 C448.55800631 235.61534314 452.69318485 239.76422796 456.82666492 243.91487598 C460.01455145 247.11387593 463.20696741 250.30832575 466.40067959 253.50150871 C467.92769664 255.02970478 469.45309478 256.55952031 470.97682858 258.09099007 C473.10413817 260.22809571 475.23768843 262.35877419 477.37291241 264.48796844 C477.99849041 265.11916595 478.62406841 265.75036346 479.26860332 266.40068817 C482.40606103 269.51567882 485.33076001 272.00834628 489.25523663 274.12737274 C491.06773663 275.62737274 491.06773663 275.62737274 492.25523663 277.12737274 C492.25523663 278.11737274 492.25523663 279.10737274 492.25523663 280.12737274 C474.18285485 280.5496635 456.11176916 280.86613077 438.03550434 281.05999184 C429.64026454 281.15243944 421.24810605 281.27822447 412.854846 281.4852829 C405.5307003 281.66587905 398.20878672 281.78108831 390.88247621 281.82096565 C387.00916956 281.84424936 383.14224182 281.89806858 379.27100277 282.03051376 C352.67921202 282.90496578 352.67921202 282.90496578 342.95249271 273.95502281 C340.08879399 270.91661225 337.47211653 267.78190192 334.98089504 264.43230057 C330.28977077 258.16645864 324.84040666 252.59053664 319.25523663 247.12737274 C317.58856996 245.46070608 315.92190329 243.79403941 314.25523663 242.12737274 C313.57461163 241.4583493 312.89398663 240.78932587 312.19273663 240.10002899 C307.92929006 235.8869948 303.86125106 231.59742217 299.95445538 227.05315399 C295.17896765 221.38367971 295.17896765 221.38367971 289.25523663 217.12737274 C289.25523663 237.91737274 289.25523663 258.70737274 289.25523663 280.12737274 C232.82523663 280.12737274 176.39523663 280.12737274 118.25523663 280.12737274 C118.25523663 260.98737274 118.25523663 241.84737274 118.25523663 222.12737274 C113.21329157 226.99764264 113.21329157 226.99764264 110.31773663 233.12737274 C109.25523663 236.12737274 109.25523663 236.12737274 107.41929913 237.93596649 C104.91078587 240.47617577 103.33665152 243.0933124 101.56773663 246.18987274 C100.96574444 247.2327243 100.36375225 248.27557587 99.74351788 249.35002899 C98.17237046 252.09371205 98.17237046 252.09371205 97.25523663 255.12737274 C77.78523663 255.12737274 58.31523663 255.12737274 38.25523663 255.12737274 C37.26523663 252.81737274 36.27523663 250.50737274 35.25523663 248.12737274 C34.07876644 246.32110053 32.85204466 244.54613074 31.56773663 242.81487274 C28.25523663 238.33648247 28.25523663 238.33648247 28.25523663 236.12737274 C27.26523663 235.79737274 26.27523663 235.46737274 25.25523663 235.12737274 C24.55579009 233.47413548 23.85970055 231.81549071 23.29429913 230.11174774 C21.97253388 227.34731096 21.97253388 227.34731096 17.25523663 223.12737274 C17.25523663 241.93737274 17.25523663 260.74737274 17.25523663 280.12737274 C-14.42476337 280.12737274 -46.10476337 280.12737274 -78.74476337 280.12737274 C-79.79966938 275.90774873 -79.76522175 272.22806067 -79.60258198 267.93637848 C-79.56258802 266.68620854 -79.56258802 266.68620854 -79.52178609 265.41078264 C-79.46312264 263.58264412 -79.40211896 261.7545796 -79.33909702 259.92658615 C-79.16482103 254.83705634 -79.0111855 249.74690877 -78.85770893 244.65671539 C-78.8247243 243.56946368 -78.79173968 242.48221196 -78.75775552 241.36201322 C-78.30731674 226.13685326 -78.05856425 210.9072398 -77.80622005 195.67772198 C-77.59533541 183.30363419 -77.31162365 170.93919536 -76.85755634 158.57146454 C-71.36747477 100.25089818 -71.36747477 100.25089818 -90.89515209 48.01071262 C-97.82573512 40.75480999 -105.69945093 34.86203299 -114.40769672 29.91468048 C-119.18493959 27.11257078 -122.31231535 23.40444506 -125.74476337 19.12737274 C-127.19234882 17.61976509 -128.65646144 16.12757504 -130.14710712 14.66252899 C-130.89154072 13.92582977 -131.63597431 13.18913055 -132.4029665 12.43010712 C-133.15513447 11.69082977 -133.90730244 10.95155243 -134.68226337 10.18987274 C-136.21445066 8.68303181 -137.74452856 7.17404187 -139.27210712 5.66252899 C-139.93976093 5.00647675 -140.60741474 4.3504245 -141.29530048 3.67449188 C-142.74476337 2.12737274 -142.74476337 2.12737274 -142.74476337 1.12737274 C-124.57738523 0.9967715 -106.41000564 0.86637468 -88.24262428 0.73622131 C-79.80722008 0.67578427 -71.37181636 0.61528029 -62.93641376 0.55461884 C-55.58421666 0.5017472 -48.23201866 0.44900106 -40.87981957 0.3964057 C-36.98682667 0.36855204 -33.09383423 0.3406355 -29.20084286 0.31256866 C-25.53606429 0.28614913 -21.87128456 0.25989751 -18.20650387 0.23377419 C-16.22148396 0.21958097 -14.23646532 0.20521016 -12.25144672 0.19083405 C-11.06659184 0.18241989 -9.88173695 0.17400574 -8.66097736 0.16533661 C-7.63317819 0.15796227 -6.60537901 0.15058792 -5.5464344 0.14299011 C-3.69703738 0.13268101 -1.84743761 0.08573169 0 0 Z M-109.74476337 14.12737274 C-106.17551933 21.56832266 -99.98199781 27.04778373 -93.75648212 32.30706024 C-90.77190342 35.00766932 -88.191476 38.02296641 -85.55335712 41.05706024 C-82.52827616 44.5198959 -79.38227902 47.61193456 -75.80726337 50.50237274 C-72.7962176 52.93766299 -70.44271892 55.74473524 -68.04163837 58.77190399 C-67.61366962 59.21920868 -67.18570087 59.66651337 -66.74476337 60.12737274 C-66.08476337 60.12737274 -65.42476337 60.12737274 -64.74476337 60.12737274 C-64.74476337 128.10737274 -64.74476337 196.08737274 -64.74476337 266.12737274 C-41.97476337 266.12737274 -19.20476337 266.12737274 4.25523663 266.12737274 C4.58523663 236.75737274 4.91523663 207.38737274 5.25523663 177.12737274 C14.16508406 189.37841296 14.16508406 189.37841296 17.63023663 195.37737274 C20.72806855 200.67232129 23.99428438 205.80413781 27.44273663 210.87737274 C30.89411178 215.96171295 33.95594563 221.10607452 36.81383038 226.55315399 C39.29107699 230.97728819 42.28586422 235.02535313 45.25523663 239.12737274 C45.91523663 240.11737274 46.57523663 241.10737274 47.25523663 242.12737274 C50.30537409 242.64299942 53.14153012 242.9534405 56.21617413 243.12346649 C57.11426296 243.17454056 58.0123518 243.22561462 58.93765545 243.27823639 C76.13809565 244.77503626 76.13809565 244.77503626 92.26842022 240.37688446 C96.54134675 235.90549135 98.51341017 230.56114848 100.34556866 224.73577118 C101.722233 220.78829887 103.90071941 217.55238104 106.25523663 214.12737274 C106.93586163 213.05487274 107.61648663 211.98237274 108.31773663 210.87737274 C110.11999375 208.31933038 112.04743448 206.32605174 114.25523663 204.12737274 C115.54418137 202.09780624 115.54418137 202.09780624 116.50523663 200.00237274 C116.84039288 199.31916962 117.17554913 198.63596649 117.52086163 197.93206024 C118.38087488 196.14335424 118.38087488 196.14335424 118.25523663 194.12737274 C118.91523663 194.12737274 119.57523663 194.12737274 120.25523663 194.12737274 C121.47788371 192.2801445 122.60903357 190.37189389 123.69273663 188.43987274 C124.28957256 187.38413055 124.8864085 186.32838837 125.50133038 185.24065399 C126.08011944 184.21327118 126.6589085 183.18588837 127.25523663 182.12737274 C127.82371319 181.21342743 128.39218975 180.29948212 128.97789288 179.35784149 C130.42088897 177.26650275 130.42088897 177.26650275 130.25523663 175.12737274 C131.24523663 175.12737274 132.23523663 175.12737274 133.25523663 175.12737274 C133.25523663 205.15737274 133.25523663 235.18737274 133.25523663 266.12737274 C153.71523663 266.12737274 174.17523663 266.12737274 195.25523663 266.12737274 C195.25523663 183.29737274 195.25523663 100.46737274 195.25523663 15.12737274 C177.43523663 15.12737274 159.61523663 15.12737274 141.25523663 15.12737274 C137.70066093 19.39286358 135.06524295 22.8640301 132.36461163 27.56487274 C132.01569866 28.16686493 131.6667857 28.76885712 131.30729961 29.38909149 C130.2012165 31.29879722 129.10261913 33.21265626 128.00523663 35.12737274 C122.95039822 43.92146914 117.75775897 52.57270293 112.22838116 61.07756805 C110.00784085 64.50976176 107.89549064 67.98231463 105.81773663 71.50237274 C101.50711031 78.75488451 97.04698337 85.90760689 92.55650616 93.04973602 C91.18692796 95.23643592 89.82749276 97.42919589 88.47008038 99.62346649 C87.78836773 100.72283539 87.78836773 100.72283539 87.09288311 101.84441376 C86.21925624 103.25379282 85.34758556 104.66438685 84.47813702 106.07634735 C82.87887782 108.65069266 81.40615617 110.9764532 79.25523663 113.12737274 C79.25523663 114.44737274 79.25523663 115.76737274 79.25523663 117.12737274 C78.26523663 117.45737274 77.27523663 117.78737274 76.25523663 118.12737274 C74.79306629 120.0735001 74.79306629 120.0735001 73.56773663 122.43987274 C73.13074444 123.21975555 72.69375225 123.99963837 72.24351788 124.80315399 C70.99436703 127.31994572 70.99436703 127.31994572 71.25523663 131.12737274 C70.59523663 131.12737274 69.93523663 131.12737274 69.25523663 131.12737274 C68.59523663 132.11737274 67.93523663 133.10737274 67.25523663 134.12737274 C66.85321026 133.4183078 66.45118389 132.70924286 66.03697491 131.9786911 C56.47844976 115.03616024 56.47844976 115.03616024 45.96251202 98.6830368 C41.09682448 91.55803002 36.84236061 84.06565873 32.48570538 76.62346649 C29.58712006 71.67476735 26.62913237 66.76582101 23.63023663 61.87737274 C23.18502666 61.15130829 22.7398167 60.42524384 22.28111553 59.67717743 C20.94036932 57.49316086 19.59799801 55.31015084 18.25523663 53.12737274 C16.3989326 50.10784606 14.5446166 47.08711483 12.69273663 44.06487274 C12.24204815 43.32962372 11.79135967 42.59437469 11.32701397 41.8368454 C7.6432409 35.80680449 4.05254236 29.72439221 0.51475811 23.60759735 C0.13005352 22.94638885 -0.25465107 22.28518036 -0.65101337 21.60393524 C-0.98423603 21.02724091 -1.31745869 20.45054657 -1.660779 19.85637665 C-2.01849384 19.28580536 -2.37620869 18.71523407 -2.74476337 18.12737274 C-3.05819187 17.44107788 -3.37162037 16.75478302 -3.6945467 16.04769135 C-7.11632768 12.84270831 -11.12360768 13.60584958 -15.63221455 13.67327118 C-17.15442867 13.67239502 -17.15442867 13.67239502 -18.7073946 13.67150116 C-22.06785285 13.67429197 -25.42742847 13.70543197 -28.78773212 13.73674774 C-31.1151452 13.74420656 -33.44256455 13.74990118 -35.76998615 13.75389862 C-41.90056873 13.7691831 -48.03077322 13.8084896 -54.16120625 13.85271454 C-60.41491804 13.89360633 -66.66869084 13.91189663 -72.92249775 13.93206024 C-85.19675256 13.97498077 -97.47072655 14.04326644 -109.74476337 14.12737274 Z M210.25523663 14.12737274 C210.25523663 97.28737274 210.25523663 180.44737274 210.25523663 266.12737274 C231.70523663 266.12737274 253.15523663 266.12737274 275.25523663 266.12737274 C275.25523663 238.73737274 275.25523663 211.34737274 275.25523663 183.12737274 C276.90523663 184.77737274 278.55523663 186.42737274 280.25523663 188.12737274 C281.86672097 189.72813145 283.47871359 191.32837862 285.09117413 192.92815399 C286.93760011 194.7653214 288.78395208 196.60256319 290.63023663 198.43987274 C292.01082256 199.80789032 292.01082256 199.80789032 293.41929913 201.20354462 C298.04828228 205.81599569 302.55253837 210.4539235 306.75572491 215.46013641 C308.78421084 217.71551422 311.07026362 219.56581312 313.41168499 221.48537445 C315.30175783 223.16880784 316.89420862 224.93689887 318.52989483 226.86687469 C321.97740281 230.85592671 325.60848469 234.59437241 329.36070538 238.29534149 C330.0071954 238.93804489 330.65368542 239.58074829 331.31976604 240.24292755 C333.35830821 242.26939375 335.40009033 244.29254406 337.44273663 246.31487274 C340.14748933 248.99293067 342.84883866 251.67435602 345.54820538 254.35784149 C346.16181423 254.96315201 346.77542309 255.56846252 347.40762615 256.19211578 C347.98535275 256.76653915 348.56307934 257.34096252 349.1583128 257.93279266 C349.66126369 258.43050674 350.16421459 258.92822083 350.68240643 259.44101715 C352.25523663 261.12737274 352.25523663 261.12737274 353.82947063 263.79155731 C357.02294087 266.86660952 358.98009328 266.71551239 363.28943157 266.74947357 C364.23817654 266.73149719 365.1869215 266.71352081 366.16441631 266.69499969 C367.16961819 266.69572983 368.17482006 266.69645996 369.2104826 266.69721222 C372.53324106 266.6937286 375.85459804 266.65482908 379.17711163 266.61565399 C381.48067236 266.60632867 383.784243 266.59921123 386.08781719 266.59421539 C392.15108393 266.57512376 398.21375189 266.52600329 404.27678204 266.4706955 C410.46352824 266.4195503 416.6503712 266.3967114 422.83726788 266.37151337 C434.97685389 266.31788748 447.11599547 266.2325477 459.25523663 266.12737274 C458.84386456 265.65106415 458.43249249 265.17475555 458.00865459 264.68401337 C457.46869854 264.05688446 456.92874249 263.42975555 456.37242413 262.78362274 C455.83730206 262.16293915 455.30217999 261.54225555 454.75084209 260.90276337 C453.58164818 259.5148466 452.46908824 258.0791749 451.38023663 256.62737274 C449.5812044 254.51086424 447.87689126 252.89354163 445.77110577 251.1115036 C440.57221589 246.60105621 435.73596584 241.75159445 430.87633038 236.88127899 C429.89576781 235.90139221 428.91505703 234.92165374 427.93420696 233.94205475 C425.8912345 231.90054634 423.85005494 229.85726708 421.81016827 227.81267548 C419.21603796 225.21284871 416.61744229 222.61753901 414.01747322 220.02355289 C411.99515838 218.00487878 409.97526473 215.98379541 407.95605946 213.96201134 C406.54007417 212.5450495 405.12210148 211.13007457 403.70407391 209.71515656 C399.2248742 205.21981299 394.89211925 200.6682534 390.75738811 195.85413361 C388.72532315 193.5182239 386.56864595 191.32817771 384.37242413 189.14690399 C383.51519756 188.29290009 382.657971 187.43889618 381.77476788 186.55901337 C380.90207256 185.69469696 380.02937725 184.83038055 379.13023663 183.93987274 C377.80959209 182.62599579 377.80959209 182.62599579 376.46226788 181.28557587 C374.77805051 179.61024954 373.09288029 177.93588039 371.40660381 176.26262665 C369.0165286 173.89045258 366.63431789 171.51057006 364.25523663 169.12737274 C363.27615422 168.14812182 362.29698198 167.16896071 361.31773663 166.18987274 C359.27606996 164.14820608 357.23440329 162.10653941 355.19273663 160.06487274 C354.70039532 159.57325653 354.20805401 159.08164032 353.70079327 158.57512665 C352.31661844 157.18884786 350.94004011 155.79499659 349.56383038 154.40081024 C347.22658175 152.02513686 347.22658175 152.02513686 344.31773663 149.75237274 C341.30669085 147.31708249 338.95319217 144.51001024 336.55211163 141.48284149 C336.12414288 141.0355368 335.69617413 140.58823212 335.25523663 140.12737274 C334.59523663 140.12737274 333.93523663 140.12737274 333.25523663 140.12737274 C337.41071216 133.20158019 343.07564965 127.891583 349.25523663 122.75237274 C350.24523663 121.88612274 351.23523663 121.01987274 352.25523663 120.12737274 C352.25523663 119.46737274 352.25523663 118.80737274 352.25523663 118.12737274 C352.83603985 117.88438446 353.41684307 117.64139618 354.01524639 117.39104462 C356.66638803 115.89542509 358.12443453 114.2286773 360.09508038 111.90862274 C363.99458248 107.46483678 368.05474553 103.25204541 372.25914288 99.09612274 C373.17969967 98.18407074 373.17969967 98.18407074 374.11885357 97.25359344 C376.67068852 94.72880038 379.22673057 92.20833939 381.78673077 89.69182587 C383.67766521 87.83088376 385.56249917 85.9639362 387.44664288 84.09612274 C388.03087521 83.52535004 388.61510754 82.95457733 389.21704388 82.36650848 C390.60139798 80.99095421 391.9339462 79.56360999 393.25523663 78.12737274 C393.25523663 77.46737274 393.25523663 76.80737274 393.25523663 76.12737274 C393.83104473 75.87681122 394.40685284 75.62624969 395.00010967 75.3680954 C397.56162255 73.95880575 399.27708613 72.34828511 401.33726788 70.27581024 C402.10490459 69.50623993 402.87254131 68.73666962 403.66343975 67.94377899 C404.45685772 67.13811493 405.25027569 66.33245087 406.06773663 65.50237274 C406.84955303 64.7199118 407.63136944 63.93745087 408.43687725 63.13127899 C411.92643113 59.61548786 415.31940101 56.07000229 418.55504131 52.31877899 C422.17246635 48.16105791 426.00969872 44.27788234 429.93883038 40.41643524 C431.37450369 38.99338571 432.81004696 37.57020497 434.245471 36.14690399 C436.48442261 33.93293681 438.72496282 31.72062031 440.96788311 29.51067352 C443.15000706 27.35856471 445.3260231 25.20043075 447.50133038 23.04143524 C448.17933193 22.37689331 448.85733349 21.71235138 449.55588055 21.02767181 C450.48298588 20.10563461 450.48298588 20.10563461 451.42882061 19.1649704 C452.2498653 18.35511185 452.2498653 18.35511185 453.08749676 17.52889252 C454.46861058 16.17532264 454.46861058 16.17532264 454.25523663 14.12737274 C395.62020736 5.50962554 395.62020736 5.50962554 341.8479948 22.69373322 C334.93954119 28.34091576 328.79389623 34.5909472 322.94273663 41.31487274 C322.37911797 41.96238117 321.81549931 42.6098896 321.23480129 43.2770195 C314.8380595 50.70549804 308.87363084 58.38537299 303.28506756 66.43808746 C300.37113098 70.29870788 296.93158543 73.48108389 293.44273663 76.81487274 C291.02617001 78.83899423 291.02617001 78.83899423 291.25523663 81.12737274 C290.6545335 81.38905243 290.05383038 81.65073212 289.43492413 81.92034149 C287.12119386 83.20160073 286.00065332 84.37544356 284.38023663 86.43987274 C281.57171685 90.01070503 278.97967267 92.02367604 275.25523663 95.12737274 C275.25523663 68.39737274 275.25523663 41.66737274 275.25523663 14.12737274 C253.80523663 14.12737274 232.35523663 14.12737274 210.25523663 14.12737274 Z " fill="#133E66" transform="translate(330.7447633743286,383.8726272583008)"/>
<path d="M0 0 C3.63 0 7.26 0 11 0 C11 3.63 11 7.26 11 11 C14.63 11 18.26 11 22 11 C22 14.63 22 18.26 22 22 C18.37 22 14.74 22 11 22 C11 23.98 11 25.96 11 28 C27.83 28 44.66 28 62 28 C61.67 28.99 61.34 29.98 61 31 C61 30.34 61 29.68 61 29 C15.79 29 -29.42 29 -76 29 C-76 28.67 -76 28.34 -76 28 C-61.81 28 -47.62 28 -33 28 C-33 26.02 -33 24.04 -33 22 C-29.37 22 -25.74 22 -22 22 C-22 18.37 -22 14.74 -22 11 C-14.74 11 -7.48 11 0 11 C0 7.37 0 3.74 0 0 Z " fill="#E8E8E8" transform="translate(757,356)"/>
<path d="M0 0 C0.66 0 1.32 0 2 0 C2.02340999 25.27889271 2.04101886 50.55778379 2.05181217 75.83668518 C2.05695796 87.57537194 2.06396779 99.31405195 2.07543945 111.05273438 C2.08543891 121.28986459 2.09186591 131.52698991 2.09408849 141.76412487 C2.09538669 147.17939549 2.09841577 152.5946521 2.10573006 158.00991821 C2.11257346 163.11848202 2.11460021 168.22702622 2.11310768 173.33559418 C2.1133803 175.19944109 2.11533565 177.06328874 2.11920547 178.92713165 C2.12427339 181.49644749 2.12295128 184.06569183 2.12025452 186.63500977 C2.12316736 187.35103017 2.1260802 188.06705057 2.12908131 188.80476856 C2.10740013 196.58630601 1.48854157 204.18333493 1 212 C32.02 212 63.04 212 95 212 C95 193.19 95 174.38 95 155 C95.99 155.33 96.98 155.66 98 156 C97.34 156 96.68 156 96 156 C96 174.81 96 193.62 96 213 C64.32 213 32.64 213 0 213 C-1.06118545 208.75525819 -1.11905944 204.91627717 -1.08229065 200.58453369 C-1.07906152 199.72765355 -1.07583239 198.87077341 -1.07250541 197.9879272 C-1.06042592 195.11202349 -1.04105391 192.23621504 -1.02172852 189.36035156 C-1.0115862 187.30067655 -1.00189247 185.24099928 -0.99261475 183.18132019 C-0.96612907 177.58459716 -0.93335045 171.9879264 -0.89946485 166.39124393 C-0.8651265 160.54427474 -0.8365439 154.69727753 -0.80735779 148.85028076 C-0.75119986 137.77581655 -0.68984537 126.70138743 -0.62663645 115.62696147 C-0.55493309 103.02011584 -0.48900376 90.4132421 -0.42356598 77.80636263 C-0.28881447 51.87087194 -0.14679061 25.93542514 0 0 Z " fill="#687789" transform="translate(252,451)"/>
<path d="M0 0 C3.63 0 7.26 0 11 0 C11 3.63 11 7.26 11 11 C14.63 11 18.26 11 22 11 C22 14.63 22 18.26 22 22 C14.74 22 7.48 22 0 22 C0 14.74 0 7.48 0 0 Z " fill="#EAEAEA" transform="translate(922,878)"/>
<path d="M0 0 C0.66 0 1.32 0 2 0 C2 8.91 2 17.82 2 27 C-0.97 27 -3.94 27 -7 27 C-7.33 24.03 -7.66 21.06 -8 18 C-8.66 18.33 -9.32 18.66 -10 19 C-10.33 19.99 -10.66 20.98 -11 22 C-11.66 22 -12.32 22 -13 22 C-11.87548273 19.0280615 -10.77706209 16.66559313 -9 14 C-8.34 14 -7.68 14 -7 14 C-6.773125 12.989375 -6.54625 11.97875 -6.3125 10.9375 C-5.06602124 6.5434382 -2.87815827 3.52574387 0 0 Z " fill="#E5E6E8" transform="translate(447,606)"/>
<path d="M0 0 C46.53 0 93.06 0 141 0 C141 0.33 141 0.66 141 1 C95.13 1.33 49.26 1.66 2 2 C2.99 3.32 3.98 4.64 5 6 C3.35 5.67 1.7 5.34 0 5 C0 3.35 0 1.7 0 0 Z " fill="#D0D2D5" transform="translate(187,384)"/>
<path d="M0 0 C1.37478516 0.01740234 1.37478516 0.01740234 2.77734375 0.03515625 C3.69644531 0.04417969 4.61554688 0.05320312 5.5625 0.0625 C6.27277344 0.07410156 6.98304688 0.08570312 7.71484375 0.09765625 C7.74171654 1.91007677 7.7611809 3.72260858 7.77734375 5.53515625 C7.78894531 6.54449219 7.80054688 7.55382812 7.8125 8.59375 C7.71484375 11.09765625 7.71484375 11.09765625 6.71484375 12.09765625 C5.21746251 12.19556195 3.71541483 12.22740489 2.21484375 12.22265625 C1.40015625 12.22523437 0.58546875 12.2278125 -0.25390625 12.23046875 C-2.28515625 12.09765625 -2.28515625 12.09765625 -3.28515625 11.09765625 C-3.38339562 9.43336574 -3.41489256 7.76483694 -3.41015625 6.09765625 C-3.41273438 5.19015625 -3.4153125 4.28265625 -3.41796875 3.34765625 C-3.23731504 0.28716995 -3.06704111 0.13107013 0 0 Z " fill="#F3F4F3" transform="translate(354.28515625,87.90234375)"/>
<path d="M0 0 C3.63 0 7.26 0 11 0 C11 3.63 11 7.26 11 11 C7.37 11 3.74 11 0 11 C0 7.37 0 3.74 0 0 Z " fill="#E9E9EA" transform="translate(911,900)"/>
<path d="M0 0 C3.63 0 7.26 0 11 0 C11 3.63 11 7.26 11 11 C7.37 11 3.74 11 0 11 C0 7.37 0 3.74 0 0 Z " fill="#E9EAEA" transform="translate(845,900)"/>
<path d="M0 0 C3.63 0 7.26 0 11 0 C11 3.63 11 7.26 11 11 C7.37 11 3.74 11 0 11 C0 7.37 0 3.74 0 0 Z " fill="#F2F2F2" transform="translate(99,900)"/>
<path d="M0 0 C3.63 0 7.26 0 11 0 C11 3.63 11 7.26 11 11 C7.37 11 3.74 11 0 11 C0 7.37 0 3.74 0 0 Z " fill="#E9E9E9" transform="translate(55,889)"/>
<path d="M0 0 C3.63 0 7.26 0 11 0 C11 3.63 11 7.26 11 11 C7.37 11 3.74 11 0 11 C0 7.37 0 3.74 0 0 Z " fill="#F4F4F4" transform="translate(922,867)"/>
<path d="M0 0 C3.63 0 7.26 0 11 0 C11 3.63 11 7.26 11 11 C7.37 11 3.74 11 0 11 C0 7.37 0 3.74 0 0 Z " fill="#E8E8E8" transform="translate(406,822)"/>
<path d="M0 0 C3.63 0 7.26 0 11 0 C11 3.63 11 7.26 11 11 C7.37 11 3.74 11 0 11 C0 7.37 0 3.74 0 0 Z " fill="#F2F2F2" transform="translate(99,367)"/>
<path d="M0 0 C3.63 0 7.26 0 11 0 C11 3.63 11 7.26 11 11 C7.37 11 3.74 11 0 11 C0 7.37 0 3.74 0 0 Z " fill="#F3F3F3" transform="translate(110,356)"/>
<path d="M0 0 C3.63 0 7.26 0 11 0 C11 3.63 11 7.26 11 11 C7.37 11 3.74 11 0 11 C0 7.37 0 3.74 0 0 Z " fill="#F3F3F3" transform="translate(121,345)"/>
<path d="M0 0 C3.63 0 7.26 0 11 0 C11 3.63 11 7.26 11 11 C7.37 11 3.74 11 0 11 C0 7.37 0 3.74 0 0 Z " fill="#F5F5F5" transform="translate(132,334)"/>
<path d="M0 0 C3.63 0 7.26 0 11 0 C11 3.63 11 7.26 11 11 C7.37 11 3.74 11 0 11 C0 7.37 0 3.74 0 0 Z " fill="#F3F3F3" transform="translate(132,211)"/>
<path d="M0 0 C2.57161458 0.03255208 5.14322917 0.06510417 7.71484375 0.09765625 C7.71484375 3.72765625 7.71484375 7.35765625 7.71484375 11.09765625 C4.08484375 11.09765625 0.45484375 11.09765625 -3.28515625 11.09765625 C-3.3828125 3.3828125 -3.3828125 3.3828125 -3.28515625 1.09765625 C-2.28515625 0.09765625 -2.28515625 0.09765625 0 0 Z " fill="#F3F4F3" transform="translate(958.28515625,288.90234375)"/>
<path d="M0 0 C2.57161458 0.03255208 5.14322917 0.06510417 7.71484375 0.09765625 C7.71484375 3.72765625 7.71484375 7.35765625 7.71484375 11.09765625 C4.08484375 11.09765625 0.45484375 11.09765625 -3.28515625 11.09765625 C-3.3828125 3.3828125 -3.3828125 3.3828125 -3.28515625 1.09765625 C-2.28515625 0.09765625 -2.28515625 0.09765625 0 0 Z " fill="#F1F2F2" transform="translate(991.28515625,65.90234375)"/>
<path d="M0 0 C2.27864583 0.06510417 4.55729167 0.13020833 6.8359375 0.1953125 C6.8359375 3.8253125 6.8359375 7.4553125 6.8359375 11.1953125 C3.2059375 11.1953125 -0.4240625 11.1953125 -4.1640625 11.1953125 C-4.359375 4.359375 -4.359375 4.359375 -4.1640625 2.1953125 C-2.1640625 0.1953125 -2.1640625 0.1953125 0 0 Z " fill="#F4F4F4" transform="translate(158.1640625,977.8046875)"/>
<path d="M0 0 C3.63 0 7.26 0 11 0 C11.09765625 7.71484375 11.09765625 7.71484375 11 10 C10 11 10 11 7.71484375 11.09765625 C5.14322917 11.06510417 2.57161458 11.03255208 0 11 C0 7.37 0 3.74 0 0 Z " fill="#E7E8E8" transform="translate(582,878)"/>
<path d="M0 0 C3.46679688 0.04882812 3.46679688 0.04882812 6.93359375 0.09765625 C7.26359375 3.72765625 7.59359375 7.35765625 7.93359375 11.09765625 C4.30359375 11.09765625 0.67359375 11.09765625 -3.06640625 11.09765625 C-3.1640625 3.3828125 -3.1640625 3.3828125 -3.06640625 1.09765625 C-2.06640625 0.09765625 -2.06640625 0.09765625 0 0 Z " fill="#E7E7E7" transform="translate(354.06640625,855.90234375)"/>
<path d="M0 0 C3.63 0 7.26 0 11 0 C11 3.3 11 6.6 11 10 C7.37 10 3.74 10 0 10 C0 6.7 0 3.4 0 0 Z " fill="#E8E8E8" transform="translate(812,0)"/>
<path d="M0 0 C2.57161458 0.03255208 5.14322917 0.06510417 7.71484375 0.09765625 C7.71484375 3.39765625 7.71484375 6.69765625 7.71484375 10.09765625 C4.08484375 10.09765625 0.45484375 10.09765625 -3.28515625 10.09765625 C-3.3828125 3.1640625 -3.3828125 3.1640625 -3.28515625 1.09765625 C-2.28515625 0.09765625 -2.28515625 0.09765625 0 0 Z " fill="#E8E8E8" transform="translate(672.28515625,711.90234375)"/>
<path d="M0 0 C6.93359375 -0.09765625 6.93359375 -0.09765625 9 0 C10.57351881 1.57351881 10.38460149 3.32954491 10.625 5.5 C10.72039062 6.3146875 10.81578125 7.129375 10.9140625 7.96875 C10.94242188 8.6390625 10.97078125 9.309375 11 10 C10 11 10 11 7.71484375 11.09765625 C5.14322917 11.06510417 2.57161458 11.03255208 0 11 C0 7.37 0 3.74 0 0 Z " fill="#E5E5E5" transform="translate(198,467)"/>
<path d="M0 0 C3.46679688 0.04882812 3.46679688 0.04882812 6.93359375 0.09765625 C6.93359375 3.72765625 6.93359375 7.35765625 6.93359375 11.09765625 C3.63359375 11.09765625 0.33359375 11.09765625 -3.06640625 11.09765625 C-3.1640625 3.3828125 -3.1640625 3.3828125 -3.06640625 1.09765625 C-2.06640625 0.09765625 -2.06640625 0.09765625 0 0 Z " fill="#F3F4F3" transform="translate(300.06640625,143.90234375)"/>
<path d="M0 0 C0.33 0.99 0.66 1.98 1 3 C-6.33333333 10.33333333 -13.66666667 17.66666667 -21 25 C-21.87245361 25.91370361 -22.74490723 26.82740723 -23.64379883 27.76879883 C-26 30 -26 30 -29 31 C-27.34763349 26.70932454 -24.1094793 23.8570447 -20.8984375 20.703125 C-20.30197418 20.10949158 -19.70551086 19.51585815 -19.0909729 18.90423584 C-17.1903019 17.01473373 -15.28278526 15.13231608 -13.375 13.25 C-12.08287532 11.96790935 -10.79120324 10.68536239 -9.5 9.40234375 C-6.33855521 6.26291568 -3.1709539 3.12982199 0 0 Z " fill="#375573" transform="translate(665,401)"/>
<path d="M0 0 C1.48550695 2.97101391 0.82306972 4.83434722 0 8 C-2.1219994 10.73070226 -3.27606385 11.8720173 -6.72088623 12.48101807 C-7.76013245 12.47213562 -8.79937866 12.46325317 -9.87011719 12.45410156 C-11.05103943 12.45379944 -12.23196167 12.45349731 -13.44866943 12.45318604 C-14.71857727 12.43254089 -15.98848511 12.41189575 -17.296875 12.390625 C-18.60078186 12.38496521 -19.90468872 12.37930542 -21.24810791 12.37347412 C-24.70732523 12.35823338 -28.16586606 12.31896662 -31.62481689 12.2746582 C-35.15733693 12.23367087 -38.68996674 12.21545582 -42.22265625 12.1953125 C-49.14871462 12.15246968 -56.0743248 12.08423815 -63 12 C-63 11.67 -63 11.34 -63 11 C-43.86 11 -24.72 11 -5 11 C-4.67 9.35 -4.34 7.7 -4 6 C-2.7295036 3.95950578 -1.40568804 1.94982535 0 0 Z " fill="#D1D3D5" transform="translate(433,628)"/>
<path d="M0 0 C1.98 0.99 1.98 0.99 4 2 C4 2.99 4 3.98 4 5 C3.01 5 2.02 5 1 5 C1 22.16 1 39.32 1 57 C0.67 57 0.34 57 0 57 C0 38.19 0 19.38 0 0 Z " fill="#C4C8CD" transform="translate(348,607)"/>
<path d="M0 0 C3.63 0 7.26 0 11 0 C11 1.98 11 3.96 11 6 C7.7 6 4.4 6 1 6 C0.67 6.66 0.34 7.32 0 8 C0 5.36 0 2.72 0 0 Z " fill="#E7E8E8" transform="translate(680,378)"/>
<path d="M0 0 C0 3.5615162 -0.73209429 4.31978575 -2.875 7.0625 C-3.40867187 7.75472656 -3.94234375 8.44695312 -4.4921875 9.16015625 C-6 11 -6 11 -8 13 C-8.99 13 -9.98 13 -11 13 C-11.2475 13.5775 -11.495 14.155 -11.75 14.75 C-13.16683317 17.3002997 -14.87627537 19.01785701 -17 21 C-17.66 20.67 -18.32 20.34 -19 20 C-16.39660435 17.22844136 -13.79214986 14.45787994 -11.1875 11.6875 C-10.44951172 10.90181641 -9.71152344 10.11613281 -8.95117188 9.30664062 C-8.23896484 8.54931641 -7.52675781 7.79199219 -6.79296875 7.01171875 C-5.81106567 5.96697388 -5.81106567 5.96697388 -4.80932617 4.90112305 C-3.22986292 3.24152511 -1.62871814 1.61108655 0 0 Z " fill="#BAC1C7" transform="translate(760,443)"/>
<path d="M0 0 C0.33 0.66 0.66 1.32 1 2 C-0.0828125 3.051875 -0.0828125 3.051875 -1.1875 4.125 C-3.16932126 6.08993073 -4.94707153 8.13178456 -6.6875 10.3125 C-7.8321875 11.6428125 -7.8321875 11.6428125 -9 13 C-9.66 13 -10.32 13 -11 13 C-11.2475 13.639375 -11.495 14.27875 -11.75 14.9375 C-13 17 -13 17 -15.078125 17.62890625 C-15.71234375 17.75136719 -16.3465625 17.87382812 -17 18 C-11.72898586 11.58930713 -5.90871848 5.81409488 0 0 Z " fill="#BBC1C8" transform="translate(734,470)"/>
<path d="M0 0 C4.29 0.33 8.58 0.66 13 1 C11.02 3.97 11.02 3.97 9 7 C4.09885545 5.50242805 3.56094351 4.45117938 0 0 Z " fill="#183B5A" transform="translate(188,385)"/>
<path d="M0 0 C0.33 0.99 0.66 1.98 1 3 C-2.96 6.96 -6.92 10.92 -11 15 C-11.99 14.67 -12.98 14.34 -14 14 C-9.38 9.38 -4.76 4.76 0 0 Z " fill="#3A5978" transform="translate(680,386)"/>
<path d="M0 0 C0.99 0 1.98 0 3 0 C3 3.96 3 7.92 3 12 C2.01 12 1.02 12 0 12 C0 8.04 0 4.08 0 0 Z " fill="#F8F8F8" transform="translate(358,645)"/>
<path d="M0 0 C0.33 0.99 0.66 1.98 1 3 C-0.28965176 4.37562854 -1.62689293 5.70766393 -3 7 C-3.66 7 -4.32 7 -5 7 C-5.226875 7.61875 -5.45375 8.2375 -5.6875 8.875 C-7.37929835 11.61410209 -8.99244161 12.05024472 -12 13 C-8.19524578 8.43969176 -4.25030379 4.14910608 0 0 Z " fill="#B8BFC6" transform="translate(811,392)"/>
<path d="M0 0 C0.33 0.99 0.66 1.98 1 3 C0.01 3.33 -0.98 3.66 -2 4 C-2.28875 4.598125 -2.5775 5.19625 -2.875 5.8125 C-4.35537318 8.69100341 -6.42278571 10.10099999 -9 12 C-9.66 11.67 -10.32 11.34 -11 11 C-7.37 7.37 -3.74 3.74 0 0 Z " fill="#B8BFC6" transform="translate(791,412)"/>
<path d="M0 0 C3.08089673 2.77280706 4.68775452 5.06326356 6 9 C3.03 8.505 3.03 8.505 0 8 C0 5.36 0 2.72 0 0 Z " fill="#C3C9CF" transform="translate(361,625)"/>
<path d="M0 0 C0.91058531 3.07322544 1.08886184 5.80097361 1 9 C0.01 9.33 -0.98 9.66 -2 10 C-3.10348268 6.68955197 -2.99444068 4.34493684 -2 1 C-1.34 0.67 -0.68 0.34 0 0 Z " fill="#F9F8F9" transform="translate(439,623)"/>
<path d="M0 0 C0.33 0.99 0.66 1.98 1 3 C0.09972412 4.03531726 -0.82093035 5.05294165 -1.75 6.0625 C-2.51570312 6.91521484 -2.51570312 6.91521484 -3.296875 7.78515625 C-4.13992188 8.38650391 -4.13992188 8.38650391 -5 9 C-6.32 8.67 -7.64 8.34 -9 8 C-6.03 5.36 -3.06 2.72 0 0 Z " fill="#BFC6CD" transform="translate(694,511)"/>
<path d="M0 0 C0.99 0 1.98 0 3 0 C3.1875 2.875 3.1875 2.875 3 6 C2.01 6.66 1.02 7.32 0 8 C-0.38063221 5.6739143 -0.71269945 3.33944736 -1 1 C-0.67 0.67 -0.34 0.34 0 0 Z " fill="#D8DADF" transform="translate(450,400)"/>
<path d="M0 0 C1.4943899 2.98877979 0.91874257 4.85002546 0 8 C-2.5625 9.375 -2.5625 9.375 -5 10 C-3.66511872 6.40608886 -2.03977277 3.24509304 0 0 Z " fill="#AFB5BF" transform="translate(433,628)"/>
<path d="M0 0 C0 4.10202215 -1.4911355 5.81306402 -4 9 C-6.75 10.375 -6.75 10.375 -9 11 C-8.06558465 9.72689688 -7.12732889 8.456612 -6.1875 7.1875 C-5.66542969 6.47980469 -5.14335938 5.77210938 -4.60546875 5.04296875 C-3.16871123 3.21468607 -1.68184237 1.60103312 0 0 Z " fill="#B2B9C1" transform="translate(709,495)"/>
<path d="M0 0 C3.63 0 7.26 0 11 0 C11 0.33 11 0.66 11 1 C6.545 1.495 6.545 1.495 2 2 C2.99 3.32 3.98 4.64 5 6 C3.35 5.67 1.7 5.34 0 5 C0 3.35 0 1.7 0 0 Z " fill="#C7CACD" transform="translate(187,384)"/>
<path d="M0 0 C0.33 0 0.66 0 1 0 C1.04254356 1.99954746 1.04080783 4.00041636 1 6 C0 7 0 7 -2.5625 7.0625 C-3.7690625 7.0315625 -3.7690625 7.0315625 -5 7 C-4.19152271 5.83054208 -3.37810888 4.66449539 -2.5625 3.5 C-2.11003906 2.8503125 -1.65757812 2.200625 -1.19140625 1.53125 C-0.79824219 1.0259375 -0.40507813 0.520625 0 0 Z " fill="#E7E7E8" transform="translate(789,416)"/>
<path d="M0 0 C2.31 0 4.62 0 7 0 C6.67 0.99 6.34 1.98 6 3 C3.69 2.67 1.38 2.34 -1 2 C-0.67 1.34 -0.34 0.68 0 0 Z " fill="#0E3457" transform="translate(465,386)"/>
<path d="M0 0 C0.8125 1.6875 0.8125 1.6875 1 4 C-1.4375 6.75 -1.4375 6.75 -4 9 C-4 5.00095031 -2.27413033 3.19799578 0 0 Z " fill="#6A7B8E" transform="translate(409,474)"/>
<path d="M0 0 C0.33 0.66 0.66 1.32 1 2 C-1.84936103 5.00765886 -4.23511958 7.27845212 -8 9 C-7.04270084 7.87411986 -6.08412105 6.7493285 -5.125 5.625 C-4.59132813 4.99851562 -4.05765625 4.37203125 -3.5078125 3.7265625 C-2.38567993 2.44163349 -1.20628025 1.20628025 0 0 Z " fill="#A8B0B8" transform="translate(734,470)"/>
<path d="M0 0 C0.66 0 1.32 0 2 0 C1.625 1.9375 1.625 1.9375 1 4 C0.01 4.495 0.01 4.495 -1 5 C-1.33 5.99 -1.66 6.98 -2 8 C-2.66 8 -3.32 8 -4 8 C-2.87548273 5.0280615 -1.77706209 2.66559313 0 0 Z " fill="#ABB2BC" transform="translate(438,620)"/>
<path d="M0 0 C1 2 1 2 0.25 4.5625 C-1 7 -1 7 -4 8 C-2.87548273 5.0280615 -1.77706209 2.66559313 0 0 Z " fill="#5B728B" transform="translate(435,432)"/>
</svg>
